<?xml version="1.0" encoding="utf-8" standalone="no"?>
<!DOCTYPE svg PUBLIC "-//W3C//DTD SVG 1.1//EN"
  "http://www.w3.org/Graphics/SVG/1.1/DTD/svg11.dtd">
<svg xmlns:xlink="http://www.w3.org/1999/xlink" width="864pt" height="432pt" viewBox="0 0 864 432" xmlns="http://www.w3.org/2000/svg" version="1.1">
 <metadata>
  <rdf:RDF xmlns:dc="http://purl.org/dc/elements/1.1/" xmlns:cc="http://creativecommons.org/ns#" xmlns:rdf="http://www.w3.org/1999/02/22-rdf-syntax-ns#">
   <cc:Work>
    <dc:type rdf:resource="http://purl.org/dc/dcmitype/StillImage"/>
    <dc:date>2026-02-23T17:08:52.423876</dc:date>
    <dc:format>image/svg+xml</dc:format>
    <dc:creator>
     <cc:Agent>
      <dc:title>Matplotlib v3.10.8, https://matplotlib.org/</dc:title>
     </cc:Agent>
    </dc:creator>
   </cc:Work>
  </rdf:RDF>
 </metadata>
 <defs>
  <style type="text/css">*{stroke-linejoin: round; stroke-linecap: butt}</style>
 </defs>
 <g id="figure_1">
  <g id="patch_1">
   <path d="M 0 432 
L 864 432 
L 864 0 
L 0 0 
z
" style="fill: #ffffff"/>
  </g>
  <g id="axes_1">
   <g id="patch_2">
    <path d="M 17.145 390.04 
L 853.2 390.04 
L 853.2 10.8 
L 17.145 10.8 
z
" style="fill: #ffffff"/>
   </g>
   <g id="matplotlib.axis_1">
    <g id="xtick_1">
     <g id="line2d_1">
      <defs>
       <path id="m55440580b9" d="M 0 0 
L 0 3.5 
" style="stroke: #000000; stroke-width: 0.8"/>
      </defs>
      <g>
       <use xlink:href="#m55440580b9" x="824.370517" y="390.04" style="stroke: #000000; stroke-width: 0.8"/>
      </g>
     </g>
     <g id="text_1">
      <!-- 0 -->
      <g transform="translate(821.189267 404.638438) scale(0.1 -0.1)">
       <defs>
        <path id="DejaVuSans-30" d="M 2034 4250 
Q 1547 4250 1301 3770 
Q 1056 3291 1056 2328 
Q 1056 1369 1301 889 
Q 1547 409 2034 409 
Q 2525 409 2770 889 
Q 3016 1369 3016 2328 
Q 3016 3291 2770 3770 
Q 2525 4250 2034 4250 
z
M 2034 4750 
Q 2819 4750 3233 4129 
Q 3647 3509 3647 2328 
Q 3647 1150 3233 529 
Q 2819 -91 2034 -91 
Q 1250 -91 836 529 
Q 422 1150 422 2328 
Q 422 3509 836 4129 
Q 1250 4750 2034 4750 
z
" transform="scale(0.015625)"/>
       </defs>
       <use xlink:href="#DejaVuSans-30"/>
      </g>
     </g>
    </g>
    <g id="xtick_2">
     <g id="line2d_2">
      <g>
       <use xlink:href="#m55440580b9" x="709.052586" y="390.04" style="stroke: #000000; stroke-width: 0.8"/>
      </g>
     </g>
     <g id="text_2">
      <!-- 2 -->
      <g transform="translate(705.871336 404.638438) scale(0.1 -0.1)">
       <defs>
        <path id="DejaVuSans-32" d="M 1228 531 
L 3431 531 
L 3431 0 
L 469 0 
L 469 531 
Q 828 903 1448 1529 
Q 2069 2156 2228 2338 
Q 2531 2678 2651 2914 
Q 2772 3150 2772 3378 
Q 2772 3750 2511 3984 
Q 2250 4219 1831 4219 
Q 1534 4219 1204 4116 
Q 875 4013 500 3803 
L 500 4441 
Q 881 4594 1212 4672 
Q 1544 4750 1819 4750 
Q 2544 4750 2975 4387 
Q 3406 4025 3406 3419 
Q 3406 3131 3298 2873 
Q 3191 2616 2906 2266 
Q 2828 2175 2409 1742 
Q 1991 1309 1228 531 
z
" transform="scale(0.015625)"/>
       </defs>
       <use xlink:href="#DejaVuSans-32"/>
      </g>
     </g>
    </g>
    <g id="xtick_3">
     <g id="line2d_3">
      <g>
       <use xlink:href="#m55440580b9" x="593.734655" y="390.04" style="stroke: #000000; stroke-width: 0.8"/>
      </g>
     </g>
     <g id="text_3">
      <!-- 4 -->
      <g transform="translate(590.553405 404.638438) scale(0.1 -0.1)">
       <defs>
        <path id="DejaVuSans-34" d="M 2419 4116 
L 825 1625 
L 2419 1625 
L 2419 4116 
z
M 2253 4666 
L 3047 4666 
L 3047 1625 
L 3713 1625 
L 3713 1100 
L 3047 1100 
L 3047 0 
L 2419 0 
L 2419 1100 
L 313 1100 
L 313 1709 
L 2253 4666 
z
" transform="scale(0.015625)"/>
       </defs>
       <use xlink:href="#DejaVuSans-34"/>
      </g>
     </g>
    </g>
    <g id="xtick_4">
     <g id="line2d_4">
      <g>
       <use xlink:href="#m55440580b9" x="478.416724" y="390.04" style="stroke: #000000; stroke-width: 0.8"/>
      </g>
     </g>
     <g id="text_4">
      <!-- 6 -->
      <g transform="translate(475.235474 404.638438) scale(0.1 -0.1)">
       <defs>
        <path id="DejaVuSans-36" d="M 2113 2584 
Q 1688 2584 1439 2293 
Q 1191 2003 1191 1497 
Q 1191 994 1439 701 
Q 1688 409 2113 409 
Q 2538 409 2786 701 
Q 3034 994 3034 1497 
Q 3034 2003 2786 2293 
Q 2538 2584 2113 2584 
z
M 3366 4563 
L 3366 3988 
Q 3128 4100 2886 4159 
Q 2644 4219 2406 4219 
Q 1781 4219 1451 3797 
Q 1122 3375 1075 2522 
Q 1259 2794 1537 2939 
Q 1816 3084 2150 3084 
Q 2853 3084 3261 2657 
Q 3669 2231 3669 1497 
Q 3669 778 3244 343 
Q 2819 -91 2113 -91 
Q 1303 -91 875 529 
Q 447 1150 447 2328 
Q 447 3434 972 4092 
Q 1497 4750 2381 4750 
Q 2619 4750 2861 4703 
Q 3103 4656 3366 4563 
z
" transform="scale(0.015625)"/>
       </defs>
       <use xlink:href="#DejaVuSans-36"/>
      </g>
     </g>
    </g>
    <g id="xtick_5">
     <g id="line2d_5">
      <g>
       <use xlink:href="#m55440580b9" x="363.098793" y="390.04" style="stroke: #000000; stroke-width: 0.8"/>
      </g>
     </g>
     <g id="text_5">
      <!-- 8 -->
      <g transform="translate(359.917543 404.638438) scale(0.1 -0.1)">
       <defs>
        <path id="DejaVuSans-38" d="M 2034 2216 
Q 1584 2216 1326 1975 
Q 1069 1734 1069 1313 
Q 1069 891 1326 650 
Q 1584 409 2034 409 
Q 2484 409 2743 651 
Q 3003 894 3003 1313 
Q 3003 1734 2745 1975 
Q 2488 2216 2034 2216 
z
M 1403 2484 
Q 997 2584 770 2862 
Q 544 3141 544 3541 
Q 544 4100 942 4425 
Q 1341 4750 2034 4750 
Q 2731 4750 3128 4425 
Q 3525 4100 3525 3541 
Q 3525 3141 3298 2862 
Q 3072 2584 2669 2484 
Q 3125 2378 3379 2068 
Q 3634 1759 3634 1313 
Q 3634 634 3220 271 
Q 2806 -91 2034 -91 
Q 1263 -91 848 271 
Q 434 634 434 1313 
Q 434 1759 690 2068 
Q 947 2378 1403 2484 
z
M 1172 3481 
Q 1172 3119 1398 2916 
Q 1625 2713 2034 2713 
Q 2441 2713 2670 2916 
Q 2900 3119 2900 3481 
Q 2900 3844 2670 4047 
Q 2441 4250 2034 4250 
Q 1625 4250 1398 4047 
Q 1172 3844 1172 3481 
z
" transform="scale(0.015625)"/>
       </defs>
       <use xlink:href="#DejaVuSans-38"/>
      </g>
     </g>
    </g>
    <g id="xtick_6">
     <g id="line2d_6">
      <g>
       <use xlink:href="#m55440580b9" x="247.780862" y="390.04" style="stroke: #000000; stroke-width: 0.8"/>
      </g>
     </g>
     <g id="text_6">
      <!-- 10 -->
      <g transform="translate(241.418362 404.638438) scale(0.1 -0.1)">
       <defs>
        <path id="DejaVuSans-31" d="M 794 531 
L 1825 531 
L 1825 4091 
L 703 3866 
L 703 4441 
L 1819 4666 
L 2450 4666 
L 2450 531 
L 3481 531 
L 3481 0 
L 794 0 
L 794 531 
z
" transform="scale(0.015625)"/>
       </defs>
       <use xlink:href="#DejaVuSans-31"/>
       <use xlink:href="#DejaVuSans-30" transform="translate(63.623047 0)"/>
      </g>
     </g>
    </g>
    <g id="xtick_7">
     <g id="line2d_7">
      <g>
       <use xlink:href="#m55440580b9" x="132.462931" y="390.04" style="stroke: #000000; stroke-width: 0.8"/>
      </g>
     </g>
     <g id="text_7">
      <!-- 12 -->
      <g transform="translate(126.100431 404.638438) scale(0.1 -0.1)">
       <use xlink:href="#DejaVuSans-31"/>
       <use xlink:href="#DejaVuSans-32" transform="translate(63.623047 0)"/>
      </g>
     </g>
    </g>
    <g id="xtick_8">
     <g id="line2d_8">
      <g>
       <use xlink:href="#m55440580b9" x="17.145" y="390.04" style="stroke: #000000; stroke-width: 0.8"/>
      </g>
     </g>
     <g id="text_8">
      <!-- 14 -->
      <g transform="translate(10.7825 404.638438) scale(0.1 -0.1)">
       <use xlink:href="#DejaVuSans-31"/>
       <use xlink:href="#DejaVuSans-34" transform="translate(63.623047 0)"/>
      </g>
     </g>
    </g>
    <g id="text_9">
     <!-- Chemical Shift (ppm) -->
     <g transform="translate(375.717031 418.316562) scale(0.1 -0.1)">
      <defs>
       <path id="DejaVuSans-Bold-43" d="M 4288 256 
Q 3956 84 3597 -3 
Q 3238 -91 2847 -91 
Q 1681 -91 1000 561 
Q 319 1213 319 2328 
Q 319 3447 1000 4098 
Q 1681 4750 2847 4750 
Q 3238 4750 3597 4662 
Q 3956 4575 4288 4403 
L 4288 3438 
Q 3953 3666 3628 3772 
Q 3303 3878 2944 3878 
Q 2300 3878 1931 3465 
Q 1563 3053 1563 2328 
Q 1563 1606 1931 1193 
Q 2300 781 2944 781 
Q 3303 781 3628 887 
Q 3953 994 4288 1222 
L 4288 256 
z
" transform="scale(0.015625)"/>
       <path id="DejaVuSans-Bold-68" d="M 4056 2131 
L 4056 0 
L 2931 0 
L 2931 347 
L 2931 1625 
Q 2931 2084 2911 2256 
Q 2891 2428 2841 2509 
Q 2775 2619 2662 2680 
Q 2550 2741 2406 2741 
Q 2056 2741 1856 2470 
Q 1656 2200 1656 1722 
L 1656 0 
L 538 0 
L 538 4863 
L 1656 4863 
L 1656 2988 
Q 1909 3294 2193 3439 
Q 2478 3584 2822 3584 
Q 3428 3584 3742 3212 
Q 4056 2841 4056 2131 
z
" transform="scale(0.015625)"/>
       <path id="DejaVuSans-Bold-65" d="M 4031 1759 
L 4031 1441 
L 1416 1441 
Q 1456 1047 1700 850 
Q 1944 653 2381 653 
Q 2734 653 3104 758 
Q 3475 863 3866 1075 
L 3866 213 
Q 3469 63 3072 -14 
Q 2675 -91 2278 -91 
Q 1328 -91 801 392 
Q 275 875 275 1747 
Q 275 2603 792 3093 
Q 1309 3584 2216 3584 
Q 3041 3584 3536 3087 
Q 4031 2591 4031 1759 
z
M 2881 2131 
Q 2881 2450 2695 2645 
Q 2509 2841 2209 2841 
Q 1884 2841 1681 2658 
Q 1478 2475 1428 2131 
L 2881 2131 
z
" transform="scale(0.015625)"/>
       <path id="DejaVuSans-Bold-6d" d="M 3781 2919 
Q 3994 3244 4286 3414 
Q 4578 3584 4928 3584 
Q 5531 3584 5847 3212 
Q 6163 2841 6163 2131 
L 6163 0 
L 5038 0 
L 5038 1825 
Q 5041 1866 5042 1909 
Q 5044 1953 5044 2034 
Q 5044 2406 4934 2573 
Q 4825 2741 4581 2741 
Q 4263 2741 4089 2478 
Q 3916 2216 3909 1719 
L 3909 0 
L 2784 0 
L 2784 1825 
Q 2784 2406 2684 2573 
Q 2584 2741 2328 2741 
Q 2006 2741 1831 2477 
Q 1656 2213 1656 1722 
L 1656 0 
L 531 0 
L 531 3500 
L 1656 3500 
L 1656 2988 
Q 1863 3284 2130 3434 
Q 2397 3584 2719 3584 
Q 3081 3584 3359 3409 
Q 3638 3234 3781 2919 
z
" transform="scale(0.015625)"/>
       <path id="DejaVuSans-Bold-69" d="M 538 3500 
L 1656 3500 
L 1656 0 
L 538 0 
L 538 3500 
z
M 538 4863 
L 1656 4863 
L 1656 3950 
L 538 3950 
L 538 4863 
z
" transform="scale(0.015625)"/>
       <path id="DejaVuSans-Bold-63" d="M 3366 3391 
L 3366 2478 
Q 3138 2634 2908 2709 
Q 2678 2784 2431 2784 
Q 1963 2784 1702 2511 
Q 1441 2238 1441 1747 
Q 1441 1256 1702 982 
Q 1963 709 2431 709 
Q 2694 709 2930 787 
Q 3166 866 3366 1019 
L 3366 103 
Q 3103 6 2833 -42 
Q 2563 -91 2291 -91 
Q 1344 -91 809 395 
Q 275 881 275 1747 
Q 275 2613 809 3098 
Q 1344 3584 2291 3584 
Q 2566 3584 2833 3536 
Q 3100 3488 3366 3391 
z
" transform="scale(0.015625)"/>
       <path id="DejaVuSans-Bold-61" d="M 2106 1575 
Q 1756 1575 1579 1456 
Q 1403 1338 1403 1106 
Q 1403 894 1545 773 
Q 1688 653 1941 653 
Q 2256 653 2472 879 
Q 2688 1106 2688 1447 
L 2688 1575 
L 2106 1575 
z
M 3816 1997 
L 3816 0 
L 2688 0 
L 2688 519 
Q 2463 200 2181 54 
Q 1900 -91 1497 -91 
Q 953 -91 614 226 
Q 275 544 275 1050 
Q 275 1666 698 1953 
Q 1122 2241 2028 2241 
L 2688 2241 
L 2688 2328 
Q 2688 2594 2478 2717 
Q 2269 2841 1825 2841 
Q 1466 2841 1156 2769 
Q 847 2697 581 2553 
L 581 3406 
Q 941 3494 1303 3539 
Q 1666 3584 2028 3584 
Q 2975 3584 3395 3211 
Q 3816 2838 3816 1997 
z
" transform="scale(0.015625)"/>
       <path id="DejaVuSans-Bold-6c" d="M 538 4863 
L 1656 4863 
L 1656 0 
L 538 0 
L 538 4863 
z
" transform="scale(0.015625)"/>
       <path id="DejaVuSans-Bold-20" transform="scale(0.015625)"/>
       <path id="DejaVuSans-Bold-53" d="M 3834 4519 
L 3834 3531 
Q 3450 3703 3084 3790 
Q 2719 3878 2394 3878 
Q 1963 3878 1756 3759 
Q 1550 3641 1550 3391 
Q 1550 3203 1689 3098 
Q 1828 2994 2194 2919 
L 2706 2816 
Q 3484 2659 3812 2340 
Q 4141 2022 4141 1434 
Q 4141 663 3683 286 
Q 3225 -91 2284 -91 
Q 1841 -91 1394 -6 
Q 947 78 500 244 
L 500 1259 
Q 947 1022 1364 901 
Q 1781 781 2169 781 
Q 2563 781 2772 912 
Q 2981 1044 2981 1288 
Q 2981 1506 2839 1625 
Q 2697 1744 2272 1838 
L 1806 1941 
Q 1106 2091 782 2419 
Q 459 2747 459 3303 
Q 459 4000 909 4375 
Q 1359 4750 2203 4750 
Q 2588 4750 2994 4692 
Q 3400 4634 3834 4519 
z
" transform="scale(0.015625)"/>
       <path id="DejaVuSans-Bold-66" d="M 2841 4863 
L 2841 4128 
L 2222 4128 
Q 1984 4128 1890 4042 
Q 1797 3956 1797 3744 
L 1797 3500 
L 2753 3500 
L 2753 2700 
L 1797 2700 
L 1797 0 
L 678 0 
L 678 2700 
L 122 2700 
L 122 3500 
L 678 3500 
L 678 3744 
Q 678 4316 997 4589 
Q 1316 4863 1984 4863 
L 2841 4863 
z
" transform="scale(0.015625)"/>
       <path id="DejaVuSans-Bold-74" d="M 1759 4494 
L 1759 3500 
L 2913 3500 
L 2913 2700 
L 1759 2700 
L 1759 1216 
Q 1759 972 1856 886 
Q 1953 800 2241 800 
L 2816 800 
L 2816 0 
L 1856 0 
Q 1194 0 917 276 
Q 641 553 641 1216 
L 641 2700 
L 84 2700 
L 84 3500 
L 641 3500 
L 641 4494 
L 1759 4494 
z
" transform="scale(0.015625)"/>
       <path id="DejaVuSans-Bold-28" d="M 2413 -844 
L 1484 -844 
Q 1006 -72 778 623 
Q 550 1319 550 2003 
Q 550 2688 779 3389 
Q 1009 4091 1484 4856 
L 2413 4856 
Q 2013 4116 1813 3408 
Q 1613 2700 1613 2009 
Q 1613 1319 1811 609 
Q 2009 -100 2413 -844 
z
" transform="scale(0.015625)"/>
       <path id="DejaVuSans-Bold-70" d="M 1656 506 
L 1656 -1331 
L 538 -1331 
L 538 3500 
L 1656 3500 
L 1656 2988 
Q 1888 3294 2169 3439 
Q 2450 3584 2816 3584 
Q 3463 3584 3878 3070 
Q 4294 2556 4294 1747 
Q 4294 938 3878 423 
Q 3463 -91 2816 -91 
Q 2450 -91 2169 54 
Q 1888 200 1656 506 
z
M 2400 2772 
Q 2041 2772 1848 2508 
Q 1656 2244 1656 1747 
Q 1656 1250 1848 986 
Q 2041 722 2400 722 
Q 2759 722 2948 984 
Q 3138 1247 3138 1747 
Q 3138 2247 2948 2509 
Q 2759 2772 2400 2772 
z
" transform="scale(0.015625)"/>
       <path id="DejaVuSans-Bold-29" d="M 513 -844 
Q 913 -100 1113 609 
Q 1313 1319 1313 2009 
Q 1313 2700 1113 3408 
Q 913 4116 513 4856 
L 1441 4856 
Q 1916 4091 2145 3389 
Q 2375 2688 2375 2003 
Q 2375 1319 2147 623 
Q 1919 -72 1441 -844 
L 513 -844 
z
" transform="scale(0.015625)"/>
      </defs>
      <use xlink:href="#DejaVuSans-Bold-43"/>
      <use xlink:href="#DejaVuSans-Bold-68" transform="translate(73.388672 0)"/>
      <use xlink:href="#DejaVuSans-Bold-65" transform="translate(144.580078 0)"/>
      <use xlink:href="#DejaVuSans-Bold-6d" transform="translate(212.402344 0)"/>
      <use xlink:href="#DejaVuSans-Bold-69" transform="translate(316.601562 0)"/>
      <use xlink:href="#DejaVuSans-Bold-63" transform="translate(350.878906 0)"/>
      <use xlink:href="#DejaVuSans-Bold-61" transform="translate(410.15625 0)"/>
      <use xlink:href="#DejaVuSans-Bold-6c" transform="translate(477.636719 0)"/>
      <use xlink:href="#DejaVuSans-Bold-20" transform="translate(511.914062 0)"/>
      <use xlink:href="#DejaVuSans-Bold-53" transform="translate(546.728516 0)"/>
      <use xlink:href="#DejaVuSans-Bold-68" transform="translate(618.75 0)"/>
      <use xlink:href="#DejaVuSans-Bold-69" transform="translate(689.941406 0)"/>
      <use xlink:href="#DejaVuSans-Bold-66" transform="translate(724.21875 0)"/>
      <use xlink:href="#DejaVuSans-Bold-74" transform="translate(767.724609 0)"/>
      <use xlink:href="#DejaVuSans-Bold-20" transform="translate(815.527344 0)"/>
      <use xlink:href="#DejaVuSans-Bold-28" transform="translate(850.341797 0)"/>
      <use xlink:href="#DejaVuSans-Bold-70" transform="translate(896.044922 0)"/>
      <use xlink:href="#DejaVuSans-Bold-70" transform="translate(967.626953 0)"/>
      <use xlink:href="#DejaVuSans-Bold-6d" transform="translate(1039.208984 0)"/>
      <use xlink:href="#DejaVuSans-Bold-29" transform="translate(1143.408203 0)"/>
     </g>
    </g>
   </g>
   <g id="line2d_9">
    <path d="M 16.201101 278.093379 
L 16.808131 278.084655 
L 16.977535 278.090693 
L 19.716228 278.096312 
L 20.746767 278.023352 
L 21.212628 278.08246 
L 21.494967 278.078647 
L 21.664371 278.075882 
L 21.94671 278.021306 
L 23.189004 278.058834 
L 23.44311 278.049329 
L 24.078374 278.058839 
L 24.939509 278.060981 
L 25.221849 278.045129 
L 25.391253 278.081443 
L 25.659475 278.026249 
L 26.068867 278.031218 
L 26.365324 278.060527 
L 26.548845 278.062057 
L 28.087595 278.043993 
L 28.313467 278.013 
L 28.976965 278.044973 
L 29.301655 278.025943 
L 29.951036 278.036633 
L 30.092206 278.019872 
L 37.080109 277.966008 
L 37.503618 278.01133 
L 37.658905 277.991598 
L 38.068297 278.010794 
L 38.223584 278.001209 
L 39.87527 277.962047 
L 40.01644 277.99235 
L 42.359858 277.955216 
L 42.486911 278.000787 
L 42.726899 278.00607 
L 42.896303 278.008524 
L 43.884491 277.993015 
L 44.011544 277.929517 
L 44.12448 277.964249 
L 44.308001 277.968959 
L 45.211487 277.975876 
L 45.310306 277.980188 
L 45.324423 277.966998 
L 45.507944 277.9398 
L 46.242026 278.005439 
L 47.865479 278.003272 
L 48.006648 277.982152 
L 48.500743 277.972007 
L 48.768965 277.978781 
L 49.813621 277.973053 
L 50.124195 277.960601 
L 50.265365 278.01465 
L 50.279482 278.003244 
L 50.463002 277.991982 
L 51.112383 277.977344 
L 51.437074 277.972019 
L 51.804115 277.953275 
L 51.973519 277.968437 
L 52.128805 277.960462 
L 52.891122 277.921196 
L 53.116994 277.957817 
L 53.498152 277.96539 
L 53.794609 277.942449 
L 54.062831 277.959953 
L 55.403944 277.972676 
L 55.545114 277.971659 
L 55.855687 277.926494 
L 56.095676 277.920772 
L 56.222728 277.952359 
L 61.389542 277.886838 
L 61.587179 277.909987 
L 61.869519 277.952165 
L 62.095391 277.934923 
L 62.405964 277.952085 
L 62.688304 277.919427 
L 68.984475 277.867824 
L 69.111528 277.90995 
L 69.23858 277.889218 
L 69.351516 277.937999 
L 69.591505 277.921868 
L 69.958546 277.89709 
L 70.297354 277.868648 
L 70.509108 277.918644 
L 70.791448 277.881321 
L 70.862033 277.933497 
L 70.918501 277.897722 
L 71.327893 277.882824 
L 71.511414 277.908767 
L 71.610232 277.947928 
L 71.638466 277.896368 
L 71.779636 277.874314 
L 72.527836 277.8747 
L 73.247802 277.878386 
L 73.48779 277.866632 
L 76.424121 277.848559 
L 76.551174 277.920572 
L 77.031151 277.890184 
L 77.440544 277.877367 
L 80.207471 277.838225 
L 80.475694 277.851047 
L 82.028561 277.827449 
L 82.197965 277.852249 
L 82.437953 277.855119 
L 82.706176 277.840027 
L 82.847346 277.834657 
L 83.172036 277.855466 
L 85.473103 277.87064 
L 85.656624 277.839097 
L 85.967197 277.844646 
L 86.136601 277.860469 
L 87.110672 277.847834 
L 87.322427 277.823508 
L 87.548299 277.830653 
L 88.635306 277.844017 
L 88.790592 277.882663 
L 89.030581 277.864687 
L 89.694079 277.833023 
L 89.976418 277.827878 
L 90.286992 277.85117 
L 90.724618 277.841732 
L 90.865788 277.855841 
L 91.006958 277.810074 
L 91.021075 277.823371 
L 91.190478 277.83706 
L 91.839859 277.852161 
L 91.981029 277.842257 
L 92.743346 277.826031 
L 93.09627 277.830397 
L 93.308025 277.831167 
L 94.098575 277.803982 
L 94.197394 277.816367 
L 94.211511 277.828731 
L 94.479734 277.847644 
L 94.649138 277.808742 
L 96.893737 277.801827 
L 97.06314 277.787077 
L 97.529001 277.826879 
L 97.980744 277.843939 
L 98.672476 277.802509 
L 98.813646 277.828666 
L 100.451215 277.805584 
L 100.578268 277.799263 
L 117.349235 277.812027 
L 117.462171 277.771752 
L 117.631575 277.768801 
L 117.843329 277.764873 
L 118.224488 277.734864 
L 118.422125 277.771971 
L 124.619478 277.696367 
L 124.746531 277.712403 
L 124.8877 277.718616 
L 126.200579 277.793371 
L 126.271164 277.801302 
L 126.299398 277.76834 
L 126.440568 277.765846 
L 126.906428 277.734155 
L 127.118183 277.743524 
L 127.273469 277.703952 
L 127.499341 277.766629 
L 127.795798 277.730256 
L 128.049903 277.757633 
L 128.713401 277.723313 
L 129.066325 277.736487 
L 130.393321 277.716724 
L 130.548608 277.729395 
L 131.070936 277.759355 
L 131.42386 277.756282 
L 131.621498 277.726411 
L 131.819136 277.746141 
L 131.960306 277.719508 
L 132.4544 277.714331 
L 132.595569 277.728103 
L 133.710811 277.770927 
L 133.837863 277.716766 
L 134.557829 277.713465 
L 135.051923 277.722763 
L 135.362497 277.734672 
L 136.011878 277.718118 
L 138.962326 277.731813 
L 139.159963 277.719286 
L 139.442303 277.734318 
L 139.625824 277.724951 
L 139.823461 277.696085 
L 142.011593 277.682049 
L 142.435102 277.70866 
L 142.49157 277.774268 
L 142.548038 277.696939 
L 142.788026 277.660379 
L 143.013898 277.719557 
L 143.296237 277.722417 
L 143.352705 277.771111 
L 143.409173 277.714915 
L 143.592694 277.675416 
L 143.733864 277.711767 
L 143.747981 277.697294 
L 143.917384 277.670638 
L 144.270309 277.692067 
L 144.453829 277.695111 
L 144.820871 277.696429 
L 145.173795 277.704798 
L 145.300848 277.702221 
L 145.512603 277.691269 
L 146.416089 277.650077 
L 146.825481 277.69147 
L 147.305459 277.702276 
L 147.460745 277.687282 
L 147.686617 277.661566 
L 147.799553 277.694669 
L 148.110126 277.686243 
L 148.307764 277.675928 
L 148.463051 277.684866 
L 148.773624 277.664758 
L 148.900677 277.656125 
L 149.197133 277.685748 
L 149.366537 277.669979 
L 149.620643 277.726474 
L 149.804163 277.675173 
L 151.752306 277.64499 
L 151.935827 277.669403 
L 152.204049 277.671599 
L 152.401687 277.668742 
L 153.827502 277.689038 
L 154.081607 277.669303 
L 154.34983 277.706381 
L 154.519233 277.642995 
L 154.67452 277.670311 
L 155.196848 277.650221 
L 157.046172 277.652775 
L 157.300278 277.683182 
L 157.469681 277.669278 
L 159.149602 277.667865 
L 159.276654 277.66723 
L 160.222492 277.647573 
L 160.448363 277.658034 
L 160.60365 277.650777 
L 160.801288 277.64901 
L 161.154212 277.625665 
L 161.267148 277.670395 
L 162.001231 277.642298 
L 162.269453 277.66198 
L 162.368272 277.615423 
L 162.551793 277.647594 
L 162.820015 277.704485 
L 163.187057 277.657689 
L 163.511747 277.685177 
L 163.681151 277.70544 
L 163.96349 277.666863 
L 164.514053 277.632706 
L 164.655222 277.63748 
L 165.135199 277.631633 
L 165.361071 277.632869 
L 165.544592 277.631246 
L 166.179856 277.641297 
L 166.476312 277.634812 
L 166.786886 277.66624 
L 167.365682 277.625897 
L 169.610281 277.668925 
L 169.793802 277.645655 
L 170.047907 277.628076 
L 170.217311 277.615515 
L 170.386715 277.632323 
L 170.796107 277.657146 
L 172.13722 277.649445 
L 172.476027 277.620791 
L 172.617197 277.661037 
L 173.224227 277.647972 
L 173.435981 277.623731 
L 173.831257 277.649484 
L 174.00066 277.635263 
L 174.184181 277.622786 
L 174.42417 277.637391 
L 174.692392 277.640851 
L 174.833562 277.61543 
L 175.553528 277.621411 
L 176.442897 277.611297 
L 176.936992 277.650247 
L 179.562749 277.660791 
L 179.859206 277.612655 
L 197.604245 277.600611 
L 197.787765 277.57567 
L 198.14069 277.592548 
L 198.903006 277.556029 
L 199.030059 277.553424 
L 199.227697 277.550609 
L 199.411218 277.566325 
L 199.552387 277.579312 
L 199.750025 277.596242 
L 200.272353 277.581753 
L 200.597044 277.562128 
L 200.879383 277.562048 
L 200.978202 277.567798 
L 201.006436 277.539377 
L 202.319315 277.609629 
L 202.446367 277.603661 
L 202.658122 277.585963 
L 203.476907 277.584146 
L 203.660427 277.568875 
L 204.182755 277.583668 
L 204.549797 277.566637 
L 204.775668 277.580745 
L 205.14271 277.55607 
L 205.340348 277.542987 
L 205.495634 277.549801 
L 205.650921 277.547499 
L 207.175554 277.551733 
L 207.373192 277.510583 
L 208.03669 277.563046 
L 208.333146 277.566767 
L 208.756656 277.519458 
L 209.067229 277.537696 
L 213.979937 277.522634 
L 214.502265 277.519181 
L 214.812839 277.555549 
L 215.010476 277.547612 
L 215.165763 277.523611 
L 215.688091 277.527183 
L 216.732747 277.532489 
L 217.00097 277.595639 
L 218.186796 277.528737 
L 220.134939 277.533522 
L 220.276108 277.517917 
L 220.544331 277.554281 
L 220.996074 277.499836 
L 221.645455 277.518189 
L 221.899561 277.544476 
L 223.452428 277.525531 
L 225.866431 277.511146 
L 226.049952 277.507931 
L 226.219355 277.511509 
L 226.487578 277.512362 
L 226.812268 277.50894 
L 226.939321 277.536239 
L 227.348713 277.531689 
L 227.489883 277.527289 
L 232.162602 277.523019 
L 232.374357 277.495759 
L 234.633073 277.507444 
L 234.92953 277.501025 
L 235.183635 277.49041 
L 235.480092 277.530789 
L 235.663612 277.508195 
L 235.903601 277.47314 
L 236.18594 277.505752 
L 236.397695 277.500157 
L 237.639989 277.409632 
L 237.851744 277.48079 
L 238.317604 277.485727 
L 238.642294 277.495125 
L 238.825815 277.483634 
L 239.094038 277.454761 
L 239.277558 277.490252 
L 239.50343 277.50978 
L 239.856354 277.489948 
L 240.039875 277.490317 
L 240.618671 277.500096 
L 240.90101 277.470454 
L 241.296286 277.488344 
L 241.493923 277.506602 
L 241.804497 277.493604 
L 243.399715 277.507184 
L 243.555002 277.460545 
L 244.232617 277.441374 
L 244.500839 277.457745 
L 245.347858 277.461725 
L 245.545496 277.468879 
L 245.686665 277.50994 
L 246.03959 277.426134 
L 246.36428 277.356362 
L 246.561918 277.202752 
L 246.759556 277.110496 
L 246.900725 277.048773 
L 247.084246 276.577357 
L 247.211299 275.504538 
L 247.352469 272.386044 
L 247.465404 263.863643 
L 247.606574 240.992802 
L 247.663042 248.113958 
L 247.888914 272.188599 
L 248.114785 275.720193 
L 248.354774 276.670395 
L 248.594762 276.841211 
L 248.665347 276.824826 
L 248.693581 276.876806 
L 248.947687 277.13739 
L 252.138123 277.36196 
L 252.279293 277.428083 
L 252.533399 277.396132 
L 252.942791 277.367448 
L 253.098078 277.341229 
L 253.253365 277.383529 
L 253.535704 277.403592 
L 253.97333 277.403016 
L 254.227436 277.354825 
L 255.046221 277.250661 
L 255.215624 277.311413 
L 255.653251 277.388396 
L 255.850888 277.391991 
L 257.135533 277.397439 
L 257.446107 277.356274 
L 257.883733 277.350608 
L 258.194306 277.20718 
L 258.22254 277.259268 
L 258.406061 277.369367 
L 258.843687 277.415182 
L 261.342392 277.391252 
L 261.681199 277.41315 
L 261.850603 277.422457 
L 262.020007 277.415255 
L 262.274112 277.425002 
L 262.457633 277.37974 
L 262.79644 277.401608 
L 263.022312 277.370944 
L 263.21995 277.404425 
L 263.82698 277.436489 
L 264.052851 277.434622 
L 265.422198 277.414227 
L 266.297451 277.405343 
L 269.346717 277.379627 
L 269.699642 277.359276 
L 270.179619 277.339525 
L 271.534849 277.359353 
L 271.718369 277.349927 
L 272.085411 277.387277 
L 272.607739 277.372575 
L 272.97478 277.379508 
L 273.172418 277.381461 
L 273.370056 277.377063 
L 273.72298 277.389067 
L 273.977086 277.407864 
L 274.146489 277.387169 
L 282.164932 277.413655 
L 282.348452 277.383243 
L 283.322524 277.39742 
L 283.477811 277.341455 
L 283.858969 277.327465 
L 284.014256 277.337976 
L 284.254244 277.354505 
L 284.522467 277.373736 
L 284.663637 277.37713 
L 284.861274 277.356864 
L 285.313017 277.370337 
L 285.595357 277.329347 
L 286.738832 277.359255 
L 286.865885 277.359577 
L 287.232926 277.36871 
L 287.40233 277.328629 
L 287.995243 277.350653 
L 288.178764 277.353828 
L 288.743443 277.38912 
L 288.926963 277.378866 
L 289.519876 277.379892 
L 289.816333 277.350842 
L 289.957503 277.334791 
L 291.016276 277.378445 
L 291.284498 277.391638 
L 291.51037 277.358468 
L 292.089166 277.344133 
L 292.25857 277.377314 
L 292.992652 277.34802 
L 293.176173 277.357114 
L 293.486747 277.351427 
L 293.769086 277.331021 
L 293.924373 277.399593 
L 294.051426 277.374145 
L 294.517286 277.390798 
L 294.658456 277.374237 
L 295.745463 277.359808 
L 296.324259 277.376855 
L 296.761885 277.346988 
L 297.171277 277.337731 
L 298.314752 277.324318 
L 298.554741 277.35429 
L 299.204122 277.376149 
L 299.40176 277.340335 
L 299.571163 277.36391 
L 299.881737 277.301804 
L 301.166382 277.301717 
L 302.676898 277.374403 
L 302.987472 277.322346 
L 303.269811 277.325533 
L 303.566268 277.333261 
L 303.778022 277.338093 
L 304.074479 277.33572 
L 304.30035 277.316344 
L 304.72386 277.310731 
L 312.318793 277.342756 
L 312.488197 277.302963 
L 313.095226 277.289934 
L 313.758724 277.272065 
L 313.942245 277.271857 
L 314.224585 277.324497 
L 314.817498 277.307744 
L 315.015135 277.291202 
L 315.22689 277.309476 
L 316.610354 277.327696 
L 316.779757 277.290859 
L 317.005629 277.294754 
L 317.824413 277.294525 
L 318.219689 277.309925 
L 318.40321 277.302511 
L 318.614964 277.301989 
L 319.094941 277.267213 
L 319.320813 277.256315 
L 319.447866 277.262916 
L 319.461983 277.242823 
L 319.560802 277.26283 
L 319.574919 277.279967 
L 319.701971 277.250858 
L 320.534873 277.28709 
L 321.141903 277.238109 
L 321.890103 277.292047 
L 322.341846 277.271442 
L 322.624185 277.307008 
L 322.878291 277.258933 
L 323.16063 277.284837 
L 323.372385 277.309571 
L 323.499438 277.270433 
L 323.739426 277.302834 
L 324.092351 277.25629 
L 324.247638 277.291512 
L 326.224014 277.282682 
L 326.266365 277.252762 
L 326.33695 277.300929 
L 327.198086 277.269895 
L 328.369795 277.287403 
L 328.962708 277.281909 
L 329.075643 277.252863 
L 329.08976 277.268919 
L 329.216813 277.251139 
L 329.485036 277.272497 
L 330.72733 277.285657 
L 330.91085 277.276289 
L 331.207307 277.293505 
L 331.419062 277.264943 
L 331.771986 277.252489 
L 331.997858 277.262636 
L 332.280197 277.265609 
L 332.73194 277.25852 
L 333.593076 277.249941 
L 334.016585 277.258901 
L 335.103592 277.279097 
L 335.258879 277.205691 
L 335.428283 277.262813 
L 335.583569 277.278551 
L 335.964728 277.305241 
L 336.402354 277.226404 
L 336.642343 277.264166 
L 336.825863 277.256268 
L 337.207022 277.280679 
L 337.418776 277.268221 
L 337.630531 277.267485 
L 337.969338 277.250116 
L 338.209327 277.238723 
L 338.364614 277.264126 
L 339.070463 277.230566 
L 339.479855 277.258108 
L 339.606908 277.228413 
L 340.086885 277.270782 
L 340.411575 277.278755 
L 340.62333 277.273387 
L 340.792734 277.246906 
L 345.324283 277.248359 
L 345.634856 277.253632 
L 346.001898 277.24389 
L 348.020625 277.195919 
L 349.361738 277.242396 
L 349.488791 277.219444 
L 350.251108 277.194121 
L 350.406394 277.218328 
L 350.646383 277.218737 
L 350.80167 277.210695 
L 351.451051 277.234705 
L 351.931028 277.250694 
L 352.086315 277.267261 
L 352.411005 277.25588 
L 352.778046 277.204 
L 354.105042 277.200815 
L 354.556785 277.180496 
L 355.036763 277.215947 
L 355.2344 277.22047 
L 366.76797 277.002683 
L 366.895023 277.059574 
L 367.064426 277.078594 
L 367.487936 277.017774 
L 367.784392 276.783071 
L 367.798509 276.796503 
L 368.193784 277.142284 
L 368.603177 276.998793 
L 368.899633 277.043796 
L 369.097271 277.146274 
L 369.450195 277.186686 
L 369.831354 277.243809 
L 370.156044 277.22252 
L 370.424267 277.172061 
L 370.988946 277.16645 
L 371.144232 277.222677 
L 371.158349 277.206584 
L 371.327753 277.177101 
L 374.814646 277.198152 
L 374.955816 277.180145 
L 375.195805 277.172369 
L 375.972238 276.886562 
L 376.226344 276.307425 
L 376.367514 275.199571 
L 376.508683 271.804617 
L 376.720438 262.406054 
L 376.847491 241.164012 
L 376.918076 248.574825 
L 377.115713 263.497099 
L 377.327468 271.716833 
L 377.369819 271.788621 
L 377.398053 271.701167 
L 377.468638 270.538619 
L 377.581574 264.012782 
L 377.849796 239.191631 
L 377.906264 246.275176 
L 378.118019 268.171106 
L 378.597996 275.902004 
L 378.837984 276.377128 
L 379.360313 276.723654 
L 379.600301 276.758024 
L 379.84029 276.78197 
L 379.981459 276.858849 
L 380.150863 276.853494 
L 382.113123 276.969536 
L 382.691919 277.013944 
L 382.833089 276.998444 
L 383.52482 277.074565 
L 384.837699 277.065119 
L 384.936518 277.005464 
L 385.105922 277.006353 
L 385.882355 276.979784 
L 386.150578 276.878047 
L 386.277631 276.8773 
L 386.489385 276.957521 
L 386.729374 276.951477 
L 387.943434 277.003228 
L 388.084604 276.993572 
L 391.599731 277.033125 
L 392.02324 277.05637 
L 392.672621 277.015008 
L 393.971383 277.044176 
L 394.098436 277.003604 
L 394.211371 277.064623 
L 394.564296 277.046977 
L 394.91722 277.066313 
L 395.905409 277.049402 
L 396.173631 277.037568 
L 396.41362 277.033737 
L 396.865363 277.038845 
L 397.175936 277.017137 
L 397.95237 277.072869 
L 398.135891 277.071747 
L 398.262944 277.037585 
L 399.928747 277.012715 
L 400.408724 277.016722 
L 400.620479 277.077186 
L 401.862772 277.022536 
L 402.003942 277.037621 
L 402.399218 277.019909 
L 402.738025 276.998843 
L 403.034482 277.005667 
L 403.373289 277.034984 
L 403.683862 276.996213 
L 403.923851 277.032755 
L 404.16384 277.002954 
L 404.77087 277.012601 
L 404.968507 277.018002 
L 405.152028 276.94342 
L 405.547303 276.899558 
L 405.942579 277.002292 
L 406.479024 276.833543 
L 406.648427 276.86818 
L 406.789597 276.909409 
L 406.959001 276.935482 
L 407.52368 276.9448 
L 407.66485 276.963337 
L 408.046008 276.989638 
L 408.370698 277.024088 
L 410.7 277.093952 
L 410.812935 277.049374 
L 414.455115 277.039763 
L 414.582168 277.026027 
L 414.878625 277.069375 
L 415.062145 276.99969 
L 415.344485 277.027316 
L 415.528005 277.035647 
L 415.951515 277.020772 
L 416.233854 277.043395 
L 416.600896 277.018065 
L 416.756182 276.994771 
L 417.334978 277.06657 
L 417.617318 277.059977 
L 417.829073 277.025614 
L 419.0996 276.978472 
L 419.297238 276.994213 
L 420.807754 277.023076 
L 420.948924 277.059391 
L 421.52772 277.050735 
L 421.852411 277.01502 
L 422.191218 277.035116 
L 422.657078 277.008256 
L 422.798248 276.955481 
L 424.534636 276.980129 
L 424.746391 276.984952 
L 424.929912 276.958605 
L 425.099315 276.972353 
L 425.339304 276.983306 
L 425.508708 277.000997 
L 426.158088 276.980714 
L 426.468662 276.970763 
L 426.694534 276.931747 
L 426.99099 277.016772 
L 427.654488 276.962319 
L 427.809775 276.944933 
L 428.007412 276.986669 
L 428.275635 276.994195 
L 428.459156 276.975254 
L 428.769729 276.964858 
L 429.221472 276.980767 
L 429.390876 277.001637 
L 429.701449 277.002942 
L 429.88497 276.987017 
L 430.223778 276.966076 
L 430.463766 276.959228 
L 431.282551 276.875594 
L 431.367253 276.839347 
L 431.395487 276.873566 
L 431.466071 276.873225 
L 431.494305 276.83805 
L 431.649592 276.808855 
L 431.931932 276.929032 
L 432.073101 276.96322 
L 432.087218 276.947688 
L 432.369558 276.838629 
L 432.680131 276.832288 
L 432.962471 276.957798 
L 433.188343 276.96839 
L 433.640086 276.946663 
L 434.021244 277.042119 
L 434.331818 276.96016 
L 434.952965 276.873827 
L 435.080017 276.924427 
L 435.48941 276.948113 
L 435.715281 276.946683 
L 435.927036 276.989661 
L 436.661119 277.011709 
L 436.788171 276.993988 
L 437.522254 276.952681 
L 437.734009 276.996157 
L 437.945764 276.958628 
L 438.157518 276.965574 
L 438.510443 276.92486 
L 439.413929 276.780404 
L 439.92214 276.152312 
L 440.06331 275.205962 
L 440.20448 272.161007 
L 440.458585 258.749086 
L 440.585638 234.515922 
L 440.642106 241.779491 
L 440.853861 261.843776 
L 441.065615 271.053422 
L 441.093849 271.143361 
L 441.1362 270.959293 
L 441.220902 268.965543 
L 441.446774 255.197689 
L 441.573826 235.021338 
L 441.644411 244.039404 
L 441.842049 267.100702 
L 442.364377 275.695887 
L 442.689068 276.193701 
L 443.154928 276.434156 
L 443.296097 276.533909 
L 443.42315 276.498662 
L 443.733724 276.602129 
L 443.903127 276.672285 
L 444.298403 276.637417 
L 444.467807 276.681824 
L 445.399527 276.742613 
L 445.780685 276.737739 
L 445.950089 276.725225 
L 448.547613 276.764351 
L 448.759367 276.713992 
L 449.055824 276.742712 
L 449.196994 276.76218 
L 449.324046 276.743225 
L 450.128714 276.620205 
L 450.38282 276.695793 
L 450.862797 276.658865 
L 451.018083 276.612709 
L 451.187487 276.72346 
L 451.385125 276.756966 
L 451.610996 276.77852 
L 451.92157 276.780601 
L 452.5286 276.799547 
L 452.683887 276.75665 
L 453.065045 276.80897 
L 453.361501 276.749206 
L 453.502671 276.759158 
L 453.714426 276.792282 
L 454.504977 276.735163 
L 454.67438 276.795328 
L 455.168474 276.847388 
L 455.408463 276.733266 
L 455.634335 276.780286 
L 456.02961 276.778324 
L 456.184897 276.777434 
L 456.481353 276.785746 
L 456.594289 276.804282 
L 456.622523 276.769668 
L 456.848395 276.785217 
L 457.144851 276.816768 
L 457.56836 276.760804 
L 458.683601 276.773888 
L 458.965941 276.797524 
L 459.149462 276.813207 
L 459.431801 276.790922 
L 466.052663 276.69819 
L 466.490289 276.608593 
L 466.829097 276.651622 
L 467.054968 276.61921 
L 467.196138 276.66366 
L 468.141976 276.72794 
L 468.297262 276.712624 
L 468.438432 276.660188 
L 468.579602 276.669963 
L 468.861941 276.657437 
L 469.017228 276.702132 
L 469.299568 276.6426 
L 469.412503 276.689952 
L 469.878364 276.730126 
L 470.697148 276.703657 
L 470.979488 276.640387 
L 471.134774 276.635303 
L 471.586518 276.684442 
L 471.699453 276.734558 
L 471.727687 276.706663 
L 472.13708 276.533853 
L 472.433536 276.552706 
L 472.800578 276.63218 
L 473.012332 276.62106 
L 473.153502 276.6402 
L 473.393491 276.710258 
L 474.184041 276.643924 
L 474.438147 276.680835 
L 474.734603 276.593391 
L 475.892195 276.627791 
L 476.075716 276.613632 
L 479.209685 276.583782 
L 480.084937 276.559844 
L 480.522564 276.583775 
L 480.81902 276.356837 
L 480.861371 276.408695 
L 481.171944 276.433331 
L 481.369582 276.585464 
L 482.004846 276.559854 
L 482.17425 276.56583 
L 482.513057 276.577032 
L 483.204789 276.643992 
L 483.416544 276.634483 
L 483.642415 276.583032 
L 483.797702 276.563864 
L 484.164743 276.478266 
L 484.630604 276.485436 
L 484.884709 276.578252 
L 485.082347 276.609503 
L 485.632909 276.607116 
L 485.759962 276.575826 
L 486.098769 276.562894 
L 486.352875 276.625205 
L 487.086957 276.535622 
L 487.270478 276.542693 
L 487.623403 276.533587 
L 487.778689 276.539233 
L 488.061029 276.532482 
L 488.583357 276.371743 
L 489.119802 275.85702 
L 489.331557 275.114646 
L 489.755066 270.56796 
L 489.910353 261.754351 
L 490.037406 237.042875 
L 490.164458 200.757199 
L 490.206809 209.573385 
L 490.475032 264.79961 
L 490.71502 272.605385 
L 490.983243 274.739718 
L 491.307933 275.554645 
L 491.632624 275.883646 
L 492.183186 276.07274 
L 492.634929 276.213265 
L 492.945503 276.299015 
L 493.312544 276.30607 
L 493.453714 276.284983 
L 493.961925 276.341755 
L 494.117212 276.344572 
L 494.371317 276.319943 
L 494.554838 276.315574 
L 495.020698 276.302889 
L 495.288921 276.381845 
L 495.613611 276.367747 
L 495.783015 276.378814 
L 498.295837 276.404263 
L 498.662878 276.411865 
L 498.846399 276.368778 
L 498.987568 276.381003 
L 499.396961 276.086871 
L 499.524013 276.097516 
L 500.611021 276.319317 
L 500.836892 276.390003 
L 501.062764 276.332588 
L 501.260402 276.367236 
L 501.796847 276.367587 
L 501.952133 276.330416 
L 502.333292 276.35545 
L 502.57328 276.345682 
L 502.742684 276.364635 
L 503.78734 276.347416 
L 503.984978 276.345591 
L 504.154382 276.357067 
L 504.323785 276.369596 
L 504.521423 276.429596 
L 504.704944 276.338774 
L 504.888464 276.281466 
L 505.481377 276.296184 
L 505.664898 276.384156 
L 506.158992 276.337039 
L 506.384864 276.36043 
L 506.624852 276.318706 
L 507.528339 276.318953 
L 507.824795 276.339504 
L 510.337617 276.303275 
L 510.507021 276.323982 
L 511.099934 276.276845 
L 514.092733 276.207676 
L 514.290371 276.203668 
L 514.459774 276.250057 
L 514.699763 276.248862 
L 515.151506 276.199599 
L 515.363261 276.251354 
L 515.575015 276.213828 
L 515.800887 276.260453 
L 516.25263 276.203385 
L 517.198468 276.222329 
L 517.32552 276.268559 
L 517.480807 276.292967 
L 517.664328 276.242775 
L 517.918433 276.199517 
L 518.186656 276.217739 
L 518.426645 276.260143 
L 518.708984 276.21902 
L 518.934856 276.135943 
L 519.174844 276.166194 
L 519.457184 276.172588 
L 519.654821 276.174178 
L 519.880693 276.144408 
L 521.970006 276.181889 
L 522.209994 276.168537 
L 522.252345 276.152832 
L 522.308813 276.206408 
L 522.633503 276.13097 
L 522.774673 276.197763 
L 522.986428 276.245833 
L 523.522873 276.111653 
L 523.706394 276.15922 
L 523.875797 276.155101 
L 523.988733 276.134012 
L 524.016967 276.162242 
L 524.299307 276.19332 
L 524.652231 276.096845 
L 524.821635 276.087323 
L 525.07574 276.070608 
L 525.21691 276.076692 
L 525.471016 276.041466 
L 525.640419 276.024164 
L 525.809823 276.046269 
L 525.979227 276.094402 
L 526.219215 276.104241 
L 526.473321 276.049672 
L 526.783894 276.01178 
L 526.981532 276.045141 
L 527.249755 276.048082 
L 527.447392 276.09378 
L 527.757966 276.048474 
L 528.167358 276.033169 
L 528.39323 276.05253 
L 528.802622 276.070756 
L 531.117806 275.985969 
L 531.258976 275.947411 
L 531.484847 275.964116 
L 531.781304 275.976218 
L 532.07776 275.905792 
L 532.247164 275.936972 
L 532.3601 275.890922 
L 532.388334 275.925587 
L 532.571855 275.954919 
L 532.769492 275.879803 
L 532.953013 275.870099 
L 533.207119 275.974226 
L 533.447107 275.966759 
L 533.602394 275.906511 
L 533.983552 275.91323 
L 534.167073 275.854046 
L 534.421179 275.851288 
L 534.590582 275.962735 
L 534.604699 275.953974 
L 534.985858 275.868372 
L 535.71994 275.837629 
L 535.988163 275.823617 
L 536.694012 275.79798 
L 536.905766 275.841592 
L 537.103404 275.91213 
L 537.625732 275.829993 
L 537.893955 275.764717 
L 538.091592 275.831325 
L 538.345698 275.903437 
L 538.726856 275.763523 
L 539.065664 275.805962 
L 539.404471 275.689144 
L 540.378542 275.694406 
L 540.505595 275.686292 
L 540.674999 275.691745 
L 540.872637 275.655191 
L 541.154976 275.638578 
L 541.493784 275.554541 
L 542.030229 275.598941 
L 543.187821 275.520104 
L 543.484277 275.480071 
L 543.61133 275.475287 
L 544.246594 275.401097 
L 544.288945 275.43413 
L 544.345413 275.36401 
L 544.571284 275.250556 
L 544.768922 275.260129 
L 545.023028 275.172999 
L 545.277133 275.154828 
L 545.474771 275.073762 
L 545.827695 275.044894 
L 545.954748 275.015963 
L 546.279438 274.846968 
L 546.858235 274.785409 
L 547.055872 274.781732 
L 548.764026 274.584602 
L 548.947547 274.58338 
L 549.116951 274.593385 
L 549.385173 274.605763 
L 549.723981 274.621972 
L 549.935735 274.703197 
L 550.387479 274.841909 
L 550.698052 274.904835 
L 551.305082 275.069465 
L 551.530954 275.112873 
L 551.756825 275.156158 
L 551.954463 275.20031 
L 552.9003 275.366153 
L 553.013236 275.416377 
L 554.354349 275.535012 
L 554.608454 275.651477 
L 554.86256 275.602641 
L 556.923639 275.783397 
L 557.078925 275.788496 
L 557.445967 275.780385 
L 557.629487 275.768114 
L 557.770657 275.782703 
L 559.154121 275.897188 
L 559.408226 275.86812 
L 559.7188 275.785989 
L 560.085841 275.781674 
L 560.212894 275.782393 
L 560.339947 275.837097 
L 560.467 275.80523 
L 562.118686 275.863441 
L 562.288089 275.848673 
L 562.570429 275.785316 
L 563.21981 275.846575 
L 563.558617 275.890321 
L 563.699787 275.904352 
L 563.840957 275.942265 
L 564.179764 275.980958 
L 564.363285 275.925052 
L 564.75856 275.874997 
L 565.055017 275.844369 
L 565.295005 275.886107 
L 565.902035 275.819622 
L 566.142024 275.946711 
L 566.25496 275.88164 
L 566.664352 275.75511 
L 567.059627 275.77715 
L 567.243148 275.634641 
L 567.299616 275.709654 
L 567.539605 275.898885 
L 567.765476 275.85535 
L 567.963114 275.786247 
L 568.330155 275.935537 
L 569.29011 275.887713 
L 569.798321 275.896158 
L 570.800626 275.743251 
L 571.012381 275.728908 
L 571.322954 275.588834 
L 571.337071 275.606855 
L 571.520592 275.716425 
L 571.704113 275.690911 
L 571.845282 275.637475 
L 571.859399 275.649501 
L 572.057037 275.755639 
L 572.071154 275.742399 
L 572.254675 275.682298 
L 572.480546 275.714368 
L 572.64995 275.722154 
L 573.031108 275.820194 
L 574.132232 275.422194 
L 574.386338 274.918503 
L 574.527508 273.930575 
L 574.668678 271.189037 
L 574.781613 264.002663 
L 574.922783 245.600744 
L 574.979251 251.185731 
L 575.176889 267.181324 
L 575.191006 267.256733 
L 575.233357 266.988725 
L 575.346292 263.585061 
L 575.445111 252.770307 
L 575.586281 216.816178 
L 575.656866 230.462945 
L 575.86862 264.104047 
L 575.995673 266.569308 
L 576.023907 266.290178 
L 576.108609 262.412428 
L 576.263896 243.849455 
L 576.320364 250.153376 
L 576.546235 270.994873 
L 576.772107 274.076178 
L 577.012096 274.926928 
L 577.237967 275.134861 
L 577.463839 275.302714 
L 577.477956 275.289768 
L 577.520307 275.291841 
L 577.562658 275.3572 
L 577.760295 275.400772 
L 577.887348 275.415354 
L 578.381442 275.539919 
L 578.621431 275.596533 
L 578.819069 275.583413 
L 579.087291 275.619994 
L 579.440215 275.676611 
L 579.609619 275.686413 
L 579.849608 275.690033 
L 580.329585 275.703852 
L 580.456638 275.691828 
L 580.611924 275.691471 
L 580.738977 275.671837 
L 580.922498 275.669683 
L 581.134253 275.681034 
L 581.93892 275.745785 
L 582.108324 275.732573 
L 582.560067 275.726653 
L 582.870641 275.707585 
L 583.082395 275.769306 
L 583.43532 275.706529 
L 583.703542 275.662646 
L 583.971765 275.716736 
L 584.282338 275.469351 
L 584.310572 275.515054 
L 584.494093 275.621866 
L 586.526937 275.681022 
L 586.682224 275.715176 
L 587.11985 275.693536 
L 587.373956 275.713223 
L 587.670413 275.711629 
L 588.47508 275.684954 
L 588.715069 275.751692 
L 589.406801 275.71173 
L 589.590321 275.688304 
L 589.844427 275.723687 
L 590.522042 275.640154 
L 591.863154 275.640623 
L 592.032558 275.600036 
L 592.272547 275.574518 
L 592.427834 275.580987 
L 593.034863 275.534868 
L 593.232501 275.499962 
L 593.500724 275.582793 
L 593.853648 275.609537 
L 594.008935 275.635582 
L 594.220689 275.54654 
L 595.731206 275.601659 
L 595.985312 275.651929 
L 596.140598 275.67615 
L 596.324119 275.621131 
L 596.549991 275.590521 
L 597.354658 275.633623 
L 597.552296 275.626687 
L 597.749934 275.6445 
L 598.540484 275.56366 
L 598.667537 275.600141 
L 598.851058 275.546068 
L 599.302801 275.536153 
L 599.429854 275.531012 
L 599.768661 275.512984 
L 600.234521 275.517493 
L 600.432159 275.483591 
L 600.672148 275.540138 
L 600.785083 275.580459 
L 605.147229 275.432521 
L 605.231931 275.410565 
L 605.274282 275.448039 
L 605.613089 275.459793 
L 606.064832 275.424997 
L 606.206002 275.486027 
L 606.234236 275.447238 
L 606.417757 275.40647 
L 606.700096 275.419393 
L 607.095372 275.386054 
L 607.293009 275.399334 
L 607.47653 275.39143 
L 607.716519 275.384186 
L 608.012975 275.439263 
L 608.210613 275.485822 
L 608.817643 275.456291 
L 609.043514 275.377721 
L 609.241152 275.351142 
L 609.410556 275.375752 
L 609.62231 275.368405 
L 610.158756 275.363825 
L 610.426978 275.378817 
L 610.568148 275.408594 
L 610.83637 275.411769 
L 611.076359 275.411245 
L 611.25988 275.406111 
L 611.499868 275.38411 
L 611.72574 275.372295 
L 612.135132 275.363717 
L 613.391543 275.314698 
L 613.645649 275.325327 
L 613.942105 275.322705 
L 614.167977 275.318505 
L 614.422082 275.291333 
L 614.605603 275.299708 
L 614.775007 275.343889 
L 615.014995 275.266309 
L 615.184399 275.281918 
L 616.836085 275.238414 
L 616.977255 275.248584 
L 617.174893 275.259202 
L 617.316062 275.253085 
L 617.570168 275.232419 
L 617.937209 275.19604 
L 618.177198 275.162999 
L 619.179503 275.200401 
L 619.320673 275.187397 
L 619.560662 275.148735 
L 620.562967 275.144605 
L 620.788839 275.126971 
L 621.028827 275.146267 
L 621.649974 275.119216 
L 621.847612 275.177265 
L 622.69463 275.109628 
L 622.97697 275.089558 
L 623.273426 275.112787 
L 625.814482 274.990728 
L 626.01212 274.96801 
L 626.266225 274.988951 
L 626.534448 274.964188 
L 633.663521 274.694073 
L 633.818808 274.717274 
L 634.171732 274.691551 
L 634.708177 274.705185 
L 634.905815 274.688952 
L 635.046985 274.693714 
L 635.272856 274.700758 
L 635.526962 274.688931 
L 636.133992 274.647053 
L 636.345746 274.639651 
L 636.501033 274.621617 
L 637.475104 274.577709 
L 637.715093 274.584682 
L 637.898614 274.51781 
L 638.110368 274.532271 
L 638.251538 274.524063 
L 641.300805 274.414894 
L 641.456092 274.359749 
L 641.611378 274.384448 
L 641.780782 274.387189 
L 641.992537 274.317386 
L 642.288993 274.368325 
L 642.543099 274.282576 
L 642.797204 274.331227 
L 644.237136 274.323764 
L 644.477125 274.273636 
L 645.225324 274.164494 
L 645.394728 274.160076 
L 646.594671 274.069416 
L 646.806426 273.995758 
L 647.639327 273.939616 
L 647.978135 273.873806 
L 648.175772 273.96021 
L 648.443995 273.753552 
L 648.542814 273.607221 
L 648.599282 273.664861 
L 648.796919 273.897264 
L 648.83927 273.870729 
L 649.276896 273.681967 
L 649.573353 273.850528 
L 650.152149 273.809388 
L 650.33567 273.788141 
L 650.80153 273.657694 
L 650.956817 273.644751 
L 651.465028 273.571269 
L 651.620315 273.558649 
L 651.87442 273.309436 
L 651.916771 273.378956 
L 652.128526 273.522377 
L 652.636737 273.442546 
L 652.876725 273.481528 
L 653.257884 273.391976 
L 653.794329 273.288364 
L 654.119019 273.115745 
L 654.316657 273.024914 
L 654.782517 272.506986 
L 654.994272 271.886668 
L 655.149559 270.461248 
L 655.290728 267.029625 
L 655.417781 257.312185 
L 655.530717 242.044416 
L 655.587185 246.411619 
L 655.798939 263.758521 
L 655.827173 263.662202 
L 655.911875 261.753238 
L 656.024811 254.248359 
L 656.151864 224.086432 
L 656.208332 215.419262 
L 656.250683 221.982539 
L 656.504788 262.295586 
L 656.603607 264.038132 
L 656.645958 263.670846 
L 656.73066 259.594998 
L 656.87183 243.307723 
L 656.942415 250.180576 
L 657.154169 268.893993 
L 657.394158 272.236821 
L 657.620029 272.944026 
L 657.888252 273.145739 
L 658.227059 273.038711 
L 658.452931 273.068573 
L 658.622335 273.15226 
L 658.650569 273.119638 
L 659.045844 272.868268 
L 659.144663 272.674382 
L 659.215248 272.794222 
L 659.455236 273.090567 
L 659.568172 273.046059 
L 660.005798 272.707357 
L 660.048149 272.834209 
L 660.23167 273.058737 
L 660.401074 272.943858 
L 660.55636 272.937963 
L 660.655179 272.85106 
L 660.824583 272.736611 
L 661.30456 272.922157 
L 662.575088 272.526046 
L 662.913895 272.450437 
L 663.12565 272.4675 
L 663.436224 271.813256 
L 663.506808 271.978801 
L 663.690329 272.146531 
L 663.775031 272.183464 
L 663.817382 272.142112 
L 664.05737 271.816145 
L 664.226774 271.55406 
L 664.240891 271.56975 
L 664.494997 271.814213 
L 664.509114 271.805007 
L 664.6644 271.70926 
L 665.27143 270.841237 
L 665.440834 270.250051 
L 665.610238 268.269258 
L 665.751408 263.407276 
L 665.87846 248.947704 
L 665.934928 242.827134 
L 665.991396 246.340954 
L 666.217268 264.471534 
L 666.259619 264.797486 
L 666.316087 264.490346 
L 666.414906 261.9855 
L 666.541958 252.82196 
L 666.654894 227.719682 
L 666.76783 185.212753 
L 666.824298 199.703745 
L 667.050169 257.460772 
L 667.177222 261.129593 
L 667.205456 260.958125 
L 667.290158 258.295565 
L 667.403094 247.359189 
L 667.530147 205.345857 
L 667.600732 184.849243 
L 667.643082 195.926786 
L 667.883071 260.166591 
L 668.080709 265.966678 
L 668.12306 265.738599 
L 668.221878 263.25709 
L 668.334814 252.866637 
L 668.419516 242.829857 
L 668.475984 247.539245 
L 668.715973 268.77069 
L 668.941844 271.48677 
L 669.19595 272.125358 
L 669.421821 272.272733 
L 669.817097 272.366874 
L 669.9865 272.342297 
L 670.212372 272.287965 
L 670.480595 272.241653 
L 670.791168 272.237526 
L 671.129976 272.18905 
L 671.680538 272.117157 
L 671.892292 272.13221 
L 672.132281 271.972908 
L 672.725194 271.875953 
L 672.852247 271.848355 
L 673.02165 271.818781 
L 673.91102 271.456157 
L 674.221593 271.594256 
L 674.602752 270.905039 
L 674.673337 270.806879 
L 674.715687 270.870043 
L 674.927442 271.339129 
L 674.955676 271.316827 
L 675.435653 270.881114 
L 675.492121 270.740155 
L 675.562706 270.850913 
L 675.957981 271.186153 
L 676.310906 270.892945 
L 676.381491 270.859233 
L 676.423842 270.907934 
L 676.579128 270.962346 
L 676.903819 271.003858 
L 677.369679 270.974725 
L 677.496732 270.963708 
L 677.779071 270.884789 
L 678.075528 270.950075 
L 678.682558 270.575675 
L 678.922546 270.605449 
L 679.501342 270.30498 
L 679.727214 270.314935 
L 679.924852 270.192933 
L 679.938969 270.204394 
L 680.080138 270.243084 
L 680.249542 270.193926 
L 680.489531 270.133386 
L 680.687168 270.15974 
L 680.842455 270.096085 
L 681.308315 269.881365 
L 681.393017 269.813296 
L 681.52007 269.823568 
L 681.774176 269.86207 
L 682.000047 269.641398 
L 682.197685 269.487495 
L 682.282387 269.425772 
L 682.494141 269.334979 
L 682.73413 269.17707 
L 682.917651 268.955872 
L 683.044703 268.848344 
L 683.439979 268.640329 
L 683.510564 268.648598 
L 683.538798 268.607437 
L 685.049314 267.386439 
L 685.119899 267.286186 
L 685.176367 267.325188 
L 685.331654 267.339965 
L 685.529291 267.165124 
L 685.656344 267.153702 
L 686.164555 266.628669 
L 686.404544 266.378424 
L 686.658649 266.196231 
L 687.096276 266.03949 
L 687.336264 265.775559 
L 687.350381 265.796903 
L 687.406849 265.782038 
L 687.435083 265.743511 
L 687.872709 265.261137 
L 688.126815 264.968677 
L 688.267985 264.884468 
L 688.465622 264.650577 
L 688.66326 264.407744 
L 689.016184 263.988212 
L 689.199705 263.86382 
L 689.284407 263.714535 
L 689.453811 263.52373 
L 689.566746 263.431206 
L 689.990256 262.441002 
L 690.794923 260.897936 
L 691.55724 258.642039 
L 691.627825 258.675081 
L 691.712527 258.616952 
L 693.364213 254.246895 
L 693.37833 254.257686 
L 693.463032 254.271097 
L 693.491266 254.225286 
L 693.590085 254.065052 
L 694.366518 252.114656 
L 694.888846 250.748729 
L 694.931197 250.992558 
L 695.171186 252.582433 
L 695.382941 252.816451 
L 695.52411 252.783156 
L 695.538227 252.796052 
L 696.046438 252.684254 
L 697.288732 251.006075 
L 697.599306 250.34558 
L 697.825177 249.80962 
L 699.618033 244.413237 
L 700.817976 237.304345 
L 701.312071 232.05735 
L 701.693229 223.283094 
L 701.904984 211.783138 
L 702.074387 187.57898 
L 702.20144 130.344771 
L 702.272025 77.523803 
L 702.328493 107.294173 
L 702.554364 239.82629 
L 702.709651 242.657257 
L 702.723768 242.606956 
L 703.048459 238.904495 
L 704.714262 217.469249 
L 705.98479 196.978711 
L 707.001212 175.187322 
L 707.876464 155.876238 
L 708.229389 151.449675 
L 708.243506 151.539433 
L 708.27174 151.405214 
L 708.342325 151.554676 
L 708.59643 153.537512 
L 708.610547 153.548536 
L 708.779951 156.58382 
L 709.316396 172.619387 
L 709.386981 171.100457 
L 709.471683 167.781926 
L 709.499917 169.883967 
L 709.584619 175.537748 
L 709.626969 172.206092 
L 709.782256 146.947945 
L 709.923426 89.035675 
L 709.965777 115.707375 
L 710.008128 273.235708 
L 710.025031 433 
M 710.723463 433 
L 710.953965 393.270508 
L 711.321007 369.177978 
L 711.857452 349.414648 
L 712.817406 333.424581 
L 713.73501 322.655762 
L 713.876179 321.378092 
L 714.186753 318.834031 
L 714.34204 317.773496 
L 715.372579 312.235068 
L 715.41493 312.175678 
L 715.443164 312.17523 
L 715.570216 311.672644 
L 715.88079 310.184496 
L 715.894907 310.205944 
L 715.937258 310.120823 
L 715.965492 310.120547 
L 716.600756 308.857132 
L 717.010148 309.122483 
L 717.405423 310.957227 
L 717.744231 312.787574 
L 717.758348 312.701043 
L 717.828933 310.977375 
L 717.899518 299.338311 
L 717.984219 243.635129 
L 718.083038 165.989561 
L 718.125389 185.517663 
L 718.365378 263.230756 
L 718.619483 280.291146 
L 719.014759 288.553765 
L 719.579438 291.146534 
L 719.593555 291.13209 
L 719.66414 291.218576 
L 719.861777 291.56734 
L 719.946479 291.592528 
L 719.960596 291.629019 
L 720.214702 291.815602 
L 720.426456 291.839598 
L 720.553509 291.814965 
L 721.146422 291.515073 
L 721.273475 291.505244 
L 721.287592 291.468458 
L 721.471112 291.375732 
L 721.499346 291.39186 
L 721.555814 291.311362 
L 721.696984 291.16444 
L 721.711101 291.188042 
L 721.838154 291.175159 
L 722.035792 291.137398 
L 722.120493 291.134026 
L 722.13461 291.101991 
L 722.374599 290.931958 
L 722.473418 290.856145 
L 722.713406 290.654506 
L 722.755757 290.715367 
L 722.854576 290.751748 
L 722.868693 290.714144 
L 723.080448 290.463088 
L 723.743946 290.031183 
L 723.856881 289.931974 
L 724.689783 289.393933 
L 724.774485 289.43138 
L 724.802719 289.376671 
L 725.056824 288.984218 
L 725.197994 288.90707 
L 725.395632 288.948831 
L 725.805024 288.582076 
L 726.186183 288.481762 
L 726.38382 288.351442 
L 726.468522 288.3806 
L 726.496756 288.332367 
L 726.637926 288.229425 
L 726.821446 288.045782 
L 727.188488 287.86831 
L 727.372009 287.827705 
L 727.569646 287.676758 
L 727.696699 287.743827 
L 727.724933 287.689924 
L 727.894337 287.646015 
L 728.162559 287.53669 
L 728.34608 287.324831 
L 728.557835 287.183625 
L 728.642536 287.120189 
L 728.67077 287.170434 
L 728.896642 287.329416 
L 728.910759 287.296893 
L 729.150748 286.998897 
L 729.376619 287.000376 
L 729.475438 286.872951 
L 729.644842 286.731928 
L 730.026 286.560551 
L 730.153053 286.51808 
L 730.703615 286.49621 
L 730.858902 286.40615 
L 731.042422 286.260592 
L 731.127124 286.176224 
L 731.183592 286.206366 
L 731.324762 286.228233 
L 731.338879 286.209414 
L 731.578867 286.101401 
L 731.720037 286.146197 
L 731.734154 286.129999 
L 732.623524 285.776622 
L 732.807044 285.677696 
L 732.976448 285.629413 
L 733.131735 285.585279 
L 733.329372 285.385219 
L 733.470542 285.396104 
L 733.484659 285.3731 
L 733.611712 285.401453 
L 733.80935 285.432615 
L 733.936402 285.430423 
L 734.105806 285.462143 
L 734.246976 285.467677 
L 734.374029 285.51326 
L 734.402263 285.475751 
L 735.108111 285.188292 
L 735.3481 285.164929 
L 735.503387 285.143464 
L 736.463341 284.88776 
L 736.604511 284.769338 
L 736.872733 284.678099 
L 737.140956 284.633357 
L 737.282126 284.613898 
L 737.465646 284.708407 
L 737.592699 284.592455 
L 737.719752 284.605356 
L 737.931507 284.612386 
L 738.072676 284.584689 
L 738.199729 284.559294 
L 739.089099 284.191716 
L 739.286736 284.247917 
L 739.526725 284.091275 
L 739.682012 284.063959 
L 739.823181 283.948099 
L 739.865532 283.982486 
L 740.034936 283.925642 
L 740.218457 283.845826 
L 740.232574 283.861918 
L 740.543147 283.905564 
L 741.234879 283.869612 
L 741.27723 283.889205 
L 741.319581 283.827284 
L 741.503102 283.654286 
L 741.799558 283.796077 
L 742.321886 283.53962 
L 742.477173 283.483463 
L 742.703045 283.431199 
L 743.027735 283.372694 
L 743.211256 283.295042 
L 743.535946 283.302486 
L 743.662999 283.321056 
L 743.804169 283.353382 
L 744.058274 283.327477 
L 744.157093 283.250832 
L 744.284146 283.182856 
L 744.31238 283.202835 
L 744.566485 283.19962 
L 744.707655 283.216222 
L 745.131165 283.166351 
L 745.286451 283.171442 
L 745.681727 283.044064 
L 746.444043 283.056658 
L 746.556979 282.9995 
L 746.726383 282.987368 
L 746.839319 282.923913 
L 746.938137 282.983623 
L 747.022839 283.043235 
L 747.06519 283.020884 
L 747.714571 282.865497 
L 748.13808 282.865137 
L 748.392186 282.767573 
L 749.620363 282.663228 
L 749.888585 282.701969 
L 750.128574 282.603292 
L 750.38268 282.487215 
L 750.749721 282.584566 
L 751.17323 282.562227 
L 751.342634 282.596029 
L 751.723792 282.459728 
L 751.963781 282.391965 
L 753.008437 282.457523 
L 753.093139 282.395771 
L 753.13549 282.437784 
L 753.46018 282.481031 
L 753.60135 282.513591 
L 753.784871 282.496343 
L 753.954275 282.490288 
L 754.180146 282.493136 
L 754.504837 282.072738 
L 754.589539 282.224966 
L 754.829527 282.311514 
L 754.984814 282.310221 
L 755.168335 282.103398 
L 755.295387 281.505668 
L 755.365972 281.750558 
L 755.591844 282.2291 
L 755.831832 282.361902 
L 756.128289 281.92513 
L 756.156523 281.961833 
L 756.424745 282.299819 
L 756.805904 282.440021 
L 756.947074 282.529254 
L 757.116477 282.609122 
L 757.130594 282.584173 
L 757.271764 282.487443 
L 757.582337 282.578038 
L 757.808209 282.489695 
L 757.963496 282.590868 
L 758.274069 282.59405 
L 758.344654 282.617344 
L 758.358771 282.645653 
L 758.514058 282.679082 
L 758.909333 282.779664 
L 759.036386 282.779945 
L 759.332843 282.757707 
L 759.502246 282.886712 
L 759.53048 282.844212 
L 759.629299 282.926627 
L 759.784586 282.921766 
L 759.968106 282.626086 
L 760.010457 282.70542 
L 760.250446 282.994095 
L 760.448084 283.039682 
L 760.561019 283.144051 
L 760.60337 283.08141 
L 760.716306 282.573951 
L 760.772774 282.375975 
L 760.829242 282.513174 
L 760.984529 282.987558 
L 761.02688 282.95161 
L 761.139815 282.449005 
L 761.280985 279.826057 
L 761.408038 272.707106 
L 761.520974 248.398007 
L 761.648027 197.30314 
L 761.704495 214.851284 
L 761.916249 265.802079 
L 762.043302 269.880612 
L 762.071536 269.663688 
L 762.156238 266.364288 
L 762.269174 249.276327 
L 762.382109 179.611644 
L 762.466811 108.718235 
L 762.523279 138.123785 
L 762.749151 249.664006 
L 762.960905 263.470029 
L 762.975022 263.503322 
L 762.989139 263.421177 
L 763.059724 260.828892 
L 763.158543 244.729609 
L 763.299713 192.048703 
L 763.356181 208.988041 
L 763.582052 262.737362 
L 763.822041 272.535634 
L 764.10438 275.696577 
L 764.414954 276.986163 
L 764.71141 277.779483 
L 765.953704 279.062412 
L 766.221927 279.221777 
L 766.419565 279.335278 
L 766.800723 279.373173 
L 766.927776 279.420425 
L 767.181881 279.570537 
L 767.365402 279.568111 
L 767.944198 279.662371 
L 768.127719 279.778073 
L 768.438292 279.78109 
L 768.678281 279.789909 
L 768.918269 279.577677 
L 769.017088 279.364629 
L 769.073556 279.448323 
L 769.257077 279.671873 
L 769.638235 279.67007 
L 769.751171 279.26436 
L 769.835873 278.912056 
L 769.892341 279.05876 
L 770.104095 279.603448 
L 770.45702 279.72547 
L 770.654657 279.366295 
L 770.739359 279.536848 
L 771.007582 279.775001 
L 771.148752 279.852464 
L 771.402857 279.863488 
L 771.840483 279.893565 
L 772.13694 279.922382 
L 773.830977 279.969927 
L 774.409773 279.927705 
L 774.56506 279.932755 
L 774.932101 279.999922 
L 775.087388 279.952044 
L 775.31326 279.919019 
L 775.750886 280.024394 
L 776.56967 279.949428 
L 776.979063 279.964313 
L 778.06607 279.90671 
L 778.320175 279.91328 
L 782.894076 279.819112 
L 782.936427 279.802056 
L 782.992895 279.865713 
L 783.345819 279.88489 
L 783.642275 279.812164 
L 784.009317 279.857687 
L 784.150487 279.853382 
L 784.46106 279.804957 
L 784.757517 279.79842 
L 785.053973 279.795978 
L 785.237494 279.836917 
L 785.364547 279.792411 
L 785.81629 279.777392 
L 786.155097 279.796312 
L 786.550373 279.743856 
L 786.875063 279.767852 
L 788.682036 279.739201 
L 788.85144 279.703006 
L 789.274949 279.737744 
L 789.514938 279.712155 
L 789.78316 279.689974 
L 789.952564 279.694983 
L 790.234903 279.679999 
L 790.446658 279.666663 
L 790.573711 279.69081 
L 790.813699 279.700091 
L 791.011337 279.723713 
L 791.110156 279.669617 
L 791.152507 279.724843 
L 791.392495 279.7229 
L 791.985408 279.718004 
L 792.197163 279.738473 
L 792.423035 279.690644 
L 792.550087 279.733479 
L 792.733608 279.683381 
L 793.735913 279.69072 
L 795.811109 279.697476 
L 795.966396 279.66218 
L 796.573426 279.592207 
L 796.756946 279.611912 
L 797.095754 279.585978 
L 797.152222 279.588321 
L 797.194573 279.542653 
L 797.349859 279.575259 
L 797.603965 279.624566 
L 798.083942 279.570406 
L 798.126293 279.589357 
L 798.182761 279.524969 
L 798.338048 279.52789 
L 798.535685 279.516653 
L 799.029779 279.553955 
L 799.199183 279.55441 
L 799.425055 279.559214 
L 799.650926 279.545748 
L 800.385009 279.529505 
L 800.653232 279.517193 
L 800.879103 279.553845 
L 801.006156 279.512665 
L 801.17556 279.508428 
L 801.486133 279.522842 
L 801.64142 279.598075 
L 803.166053 279.468645 
L 803.349574 279.517538 
L 804.422464 279.445176 
L 804.634219 279.385527 
L 805.820045 279.490077 
L 805.975332 279.467792 
L 806.624713 279.391338 
L 806.878818 279.505224 
L 807.28821 279.50095 
L 810.831571 279.467548 
L 811.099794 279.481129 
L 811.3539 279.463431 
L 811.622122 279.488618 
L 812.059748 279.446082 
L 812.158567 279.39777 
L 812.200918 279.43448 
L 812.469141 279.41027 
L 812.822065 278.514205 
L 812.89265 278.32942 
L 812.935001 278.447506 
L 813.17499 279.234275 
L 813.485563 279.373259 
L 813.64085 279.426914 
L 815.574875 279.582411 
L 815.814864 279.572082 
L 816.026619 279.565913 
L 817.579486 279.805333 
L 817.706539 279.810707 
L 817.89006 279.724811 
L 818.059463 279.649726 
L 818.242984 279.561055 
L 818.610025 279.49323 
L 818.906482 278.361718 
L 819.033535 276.421057 
L 819.14647 270.300952 
L 819.386459 244.200875 
L 819.499395 162.558195 
L 819.584097 55.416473 
L 819.640565 94.457793 
L 819.852319 242.237137 
L 820.092308 264.620812 
L 820.318179 272.62051 
L 820.586402 275.340982 
L 820.925209 276.6702 
L 821.136964 277.008113 
L 821.292251 277.251951 
L 821.518122 277.395759 
L 821.616941 277.537778 
L 821.772228 277.651418 
L 821.9981 277.789366 
L 822.365141 278.012705 
L 822.46396 278.106714 
L 823.452148 278.267528 
L 823.607435 278.308132 
L 823.86154 278.371109 
L 824.115646 278.362953 
L 824.28505 278.406006 
L 824.680325 278.417162 
L 824.906197 278.394868 
L 825.35794 278.479629 
L 825.513227 278.433548 
L 825.710864 278.456763 
L 826.021438 278.455577 
L 826.204959 278.434278 
L 826.402596 277.763023 
L 826.487298 277.460917 
L 826.543766 277.592109 
L 826.826105 278.312239 
L 827.588422 278.583852 
L 827.814294 278.527109 
L 828.040165 278.649881 
L 830.651806 278.751802 
L 830.807093 278.707213 
L 831.061198 278.708021 
L 831.244719 278.731044 
L 831.541176 278.612869 
L 831.795281 278.668124 
L 831.950568 278.673628 
L 832.119972 278.670261 
L 832.444662 278.635541 
L 832.741118 278.688798 
L 832.96699 278.632964 
L 834.745729 278.648939 
L 834.971601 278.71396 
L 835.225706 278.757047 
L 835.423344 278.741664 
L 835.606865 278.73851 
L 836.044491 278.685751 
L 836.905626 278.700994 
L 837.032679 278.684013 
L 837.173849 278.682232 
L 837.272668 278.638466 
L 837.456189 278.634792 
L 837.766762 278.665426 
L 837.936166 278.664125 
L 838.232622 278.683591 
L 838.43026 278.68228 
L 838.585547 278.644097 
L 839.023173 278.701204 
L 839.17846 278.614529 
L 839.305512 278.666101 
L 839.983127 278.635987 
L 840.039595 278.581602 
L 840.11018 278.64498 
L 840.463104 278.748605 
L 840.688976 278.689912 
L 841.451293 278.701657 
L 841.634813 278.63102 
L 841.832451 278.630813 
L 842.552417 278.698122 
L 842.67947 278.753607 
L 842.721821 278.693261 
L 843.187681 278.657992 
L 843.328851 278.608426 
L 844.232337 278.63995 
L 844.429975 278.663874 
L 844.655846 278.618119 
L 846.745159 278.531622 
L 846.886329 278.554103 
L 847.126317 278.620685 
L 847.239253 278.573364 
L 847.507476 278.490694 
L 847.747464 278.615298 
L 848.015687 278.723991 
L 848.396845 278.692124 
L 848.566249 278.710717 
L 848.778003 278.638271 
L 851.290825 278.568592 
L 851.64375 278.717212 
L 851.855504 278.693335 
L 852.377832 278.601234 
L 852.674289 278.529013 
L 852.801342 278.571971 
L 853.295436 278.541426 
L 853.50719 278.520284 
L 853.733062 278.62397 
L 854.241273 278.551591 
L 854.382443 278.563379 
L 854.763601 278.631806 
L 854.961239 278.619278 
L 855.158877 278.558211 
L 855.370631 278.60104 
L 855.540035 278.629353 
L 855.75179 278.608526 
L 855.93531 278.629641 
L 856.104714 278.567796 
L 856.316469 278.505961 
L 856.54234 278.518376 
L 857.0082 278.52919 
L 857.177604 278.53422 
L 857.629347 278.543563 
L 858.448132 278.535968 
L 858.82929 278.574032 
L 859.055162 278.561319 
L 859.309268 278.580998 
L 859.57749 278.608046 
L 859.803362 278.616351 
L 860.029233 278.653145 
L 860.212754 278.61419 
L 860.396275 278.654121 
L 860.777433 278.636355 
L 861.935025 278.483415 
L 862.14678 278.564696 
L 862.415002 278.594315 
L 863.600828 278.559493 
L 863.840817 278.524034 
L 864.010221 278.572046 
L 864.320794 278.558395 
L 864.603134 278.541086 
L 865 278.570477 
L 865 278.570477 
" clip-path="url(#pad499dda9b)" style="fill: none; stroke: #000000; stroke-width: 0.5; stroke-linecap: square"/>
   </g>
   <g id="patch_3">
    <path d="M 17.145 390.04 
L 17.145 10.8 
" style="fill: none; stroke: #000000; stroke-width: 0.8; stroke-linejoin: miter; stroke-linecap: square"/>
   </g>
   <g id="patch_4">
    <path d="M 853.2 390.04 
L 853.2 10.8 
" style="fill: none; stroke: #000000; stroke-width: 0.8; stroke-linejoin: miter; stroke-linecap: square"/>
   </g>
   <g id="patch_5">
    <path d="M 17.145 390.04 
L 853.2 390.04 
" style="fill: none; stroke: #000000; stroke-width: 0.8; stroke-linejoin: miter; stroke-linecap: square"/>
   </g>
   <g id="patch_6">
    <path d="M 17.145 10.8 
L 853.2 10.8 
" style="fill: none; stroke: #000000; stroke-width: 0.8; stroke-linejoin: miter; stroke-linecap: square"/>
   </g>
  </g>
 </g>
 <defs>
  <clipPath id="pad499dda9b">
   <rect x="17.145" y="10.8" width="836.055" height="379.24"/>
  </clipPath>
 </defs>
</svg>
