<?xml version="1.0" encoding="utf-8" standalone="no"?>
<!DOCTYPE svg PUBLIC "-//W3C//DTD SVG 1.1//EN"
  "http://www.w3.org/Graphics/SVG/1.1/DTD/svg11.dtd">
<svg xmlns:xlink="http://www.w3.org/1999/xlink" width="864pt" height="432pt" viewBox="0 0 864 432" xmlns="http://www.w3.org/2000/svg" version="1.1">
 <metadata>
  <rdf:RDF xmlns:dc="http://purl.org/dc/elements/1.1/" xmlns:cc="http://creativecommons.org/ns#" xmlns:rdf="http://www.w3.org/1999/02/22-rdf-syntax-ns#">
   <cc:Work>
    <dc:type rdf:resource="http://purl.org/dc/dcmitype/StillImage"/>
    <dc:date>2026-02-23T17:08:52.029922</dc:date>
    <dc:format>image/svg+xml</dc:format>
    <dc:creator>
     <cc:Agent>
      <dc:title>Matplotlib v3.10.8, https://matplotlib.org/</dc:title>
     </cc:Agent>
    </dc:creator>
   </cc:Work>
  </rdf:RDF>
 </metadata>
 <defs>
  <style type="text/css">*{stroke-linejoin: round; stroke-linecap: butt}</style>
 </defs>
 <g id="figure_1">
  <g id="patch_1">
   <path d="M 0 432 
L 864 432 
L 864 0 
L 0 0 
z
" style="fill: #ffffff"/>
  </g>
  <g id="axes_1">
   <g id="patch_2">
    <path d="M 17.145 390.04 
L 853.2 390.04 
L 853.2 10.8 
L 17.145 10.8 
z
" style="fill: #ffffff"/>
   </g>
   <g id="matplotlib.axis_1">
    <g id="xtick_1">
     <g id="line2d_1">
      <defs>
       <path id="m552c1b29d8" d="M 0 0 
L 0 3.5 
" style="stroke: #000000; stroke-width: 0.8"/>
      </defs>
      <g>
       <use xlink:href="#m552c1b29d8" x="824.370517" y="390.04" style="stroke: #000000; stroke-width: 0.8"/>
      </g>
     </g>
     <g id="text_1">
      <!-- 0 -->
      <g transform="translate(821.189267 404.638438) scale(0.1 -0.1)">
       <defs>
        <path id="DejaVuSans-30" d="M 2034 4250 
Q 1547 4250 1301 3770 
Q 1056 3291 1056 2328 
Q 1056 1369 1301 889 
Q 1547 409 2034 409 
Q 2525 409 2770 889 
Q 3016 1369 3016 2328 
Q 3016 3291 2770 3770 
Q 2525 4250 2034 4250 
z
M 2034 4750 
Q 2819 4750 3233 4129 
Q 3647 3509 3647 2328 
Q 3647 1150 3233 529 
Q 2819 -91 2034 -91 
Q 1250 -91 836 529 
Q 422 1150 422 2328 
Q 422 3509 836 4129 
Q 1250 4750 2034 4750 
z
" transform="scale(0.015625)"/>
       </defs>
       <use xlink:href="#DejaVuSans-30"/>
      </g>
     </g>
    </g>
    <g id="xtick_2">
     <g id="line2d_2">
      <g>
       <use xlink:href="#m552c1b29d8" x="709.052586" y="390.04" style="stroke: #000000; stroke-width: 0.8"/>
      </g>
     </g>
     <g id="text_2">
      <!-- 2 -->
      <g transform="translate(705.871336 404.638438) scale(0.1 -0.1)">
       <defs>
        <path id="DejaVuSans-32" d="M 1228 531 
L 3431 531 
L 3431 0 
L 469 0 
L 469 531 
Q 828 903 1448 1529 
Q 2069 2156 2228 2338 
Q 2531 2678 2651 2914 
Q 2772 3150 2772 3378 
Q 2772 3750 2511 3984 
Q 2250 4219 1831 4219 
Q 1534 4219 1204 4116 
Q 875 4013 500 3803 
L 500 4441 
Q 881 4594 1212 4672 
Q 1544 4750 1819 4750 
Q 2544 4750 2975 4387 
Q 3406 4025 3406 3419 
Q 3406 3131 3298 2873 
Q 3191 2616 2906 2266 
Q 2828 2175 2409 1742 
Q 1991 1309 1228 531 
z
" transform="scale(0.015625)"/>
       </defs>
       <use xlink:href="#DejaVuSans-32"/>
      </g>
     </g>
    </g>
    <g id="xtick_3">
     <g id="line2d_3">
      <g>
       <use xlink:href="#m552c1b29d8" x="593.734655" y="390.04" style="stroke: #000000; stroke-width: 0.8"/>
      </g>
     </g>
     <g id="text_3">
      <!-- 4 -->
      <g transform="translate(590.553405 404.638438) scale(0.1 -0.1)">
       <defs>
        <path id="DejaVuSans-34" d="M 2419 4116 
L 825 1625 
L 2419 1625 
L 2419 4116 
z
M 2253 4666 
L 3047 4666 
L 3047 1625 
L 3713 1625 
L 3713 1100 
L 3047 1100 
L 3047 0 
L 2419 0 
L 2419 1100 
L 313 1100 
L 313 1709 
L 2253 4666 
z
" transform="scale(0.015625)"/>
       </defs>
       <use xlink:href="#DejaVuSans-34"/>
      </g>
     </g>
    </g>
    <g id="xtick_4">
     <g id="line2d_4">
      <g>
       <use xlink:href="#m552c1b29d8" x="478.416724" y="390.04" style="stroke: #000000; stroke-width: 0.8"/>
      </g>
     </g>
     <g id="text_4">
      <!-- 6 -->
      <g transform="translate(475.235474 404.638438) scale(0.1 -0.1)">
       <defs>
        <path id="DejaVuSans-36" d="M 2113 2584 
Q 1688 2584 1439 2293 
Q 1191 2003 1191 1497 
Q 1191 994 1439 701 
Q 1688 409 2113 409 
Q 2538 409 2786 701 
Q 3034 994 3034 1497 
Q 3034 2003 2786 2293 
Q 2538 2584 2113 2584 
z
M 3366 4563 
L 3366 3988 
Q 3128 4100 2886 4159 
Q 2644 4219 2406 4219 
Q 1781 4219 1451 3797 
Q 1122 3375 1075 2522 
Q 1259 2794 1537 2939 
Q 1816 3084 2150 3084 
Q 2853 3084 3261 2657 
Q 3669 2231 3669 1497 
Q 3669 778 3244 343 
Q 2819 -91 2113 -91 
Q 1303 -91 875 529 
Q 447 1150 447 2328 
Q 447 3434 972 4092 
Q 1497 4750 2381 4750 
Q 2619 4750 2861 4703 
Q 3103 4656 3366 4563 
z
" transform="scale(0.015625)"/>
       </defs>
       <use xlink:href="#DejaVuSans-36"/>
      </g>
     </g>
    </g>
    <g id="xtick_5">
     <g id="line2d_5">
      <g>
       <use xlink:href="#m552c1b29d8" x="363.098793" y="390.04" style="stroke: #000000; stroke-width: 0.8"/>
      </g>
     </g>
     <g id="text_5">
      <!-- 8 -->
      <g transform="translate(359.917543 404.638438) scale(0.1 -0.1)">
       <defs>
        <path id="DejaVuSans-38" d="M 2034 2216 
Q 1584 2216 1326 1975 
Q 1069 1734 1069 1313 
Q 1069 891 1326 650 
Q 1584 409 2034 409 
Q 2484 409 2743 651 
Q 3003 894 3003 1313 
Q 3003 1734 2745 1975 
Q 2488 2216 2034 2216 
z
M 1403 2484 
Q 997 2584 770 2862 
Q 544 3141 544 3541 
Q 544 4100 942 4425 
Q 1341 4750 2034 4750 
Q 2731 4750 3128 4425 
Q 3525 4100 3525 3541 
Q 3525 3141 3298 2862 
Q 3072 2584 2669 2484 
Q 3125 2378 3379 2068 
Q 3634 1759 3634 1313 
Q 3634 634 3220 271 
Q 2806 -91 2034 -91 
Q 1263 -91 848 271 
Q 434 634 434 1313 
Q 434 1759 690 2068 
Q 947 2378 1403 2484 
z
M 1172 3481 
Q 1172 3119 1398 2916 
Q 1625 2713 2034 2713 
Q 2441 2713 2670 2916 
Q 2900 3119 2900 3481 
Q 2900 3844 2670 4047 
Q 2441 4250 2034 4250 
Q 1625 4250 1398 4047 
Q 1172 3844 1172 3481 
z
" transform="scale(0.015625)"/>
       </defs>
       <use xlink:href="#DejaVuSans-38"/>
      </g>
     </g>
    </g>
    <g id="xtick_6">
     <g id="line2d_6">
      <g>
       <use xlink:href="#m552c1b29d8" x="247.780862" y="390.04" style="stroke: #000000; stroke-width: 0.8"/>
      </g>
     </g>
     <g id="text_6">
      <!-- 10 -->
      <g transform="translate(241.418362 404.638438) scale(0.1 -0.1)">
       <defs>
        <path id="DejaVuSans-31" d="M 794 531 
L 1825 531 
L 1825 4091 
L 703 3866 
L 703 4441 
L 1819 4666 
L 2450 4666 
L 2450 531 
L 3481 531 
L 3481 0 
L 794 0 
L 794 531 
z
" transform="scale(0.015625)"/>
       </defs>
       <use xlink:href="#DejaVuSans-31"/>
       <use xlink:href="#DejaVuSans-30" transform="translate(63.623047 0)"/>
      </g>
     </g>
    </g>
    <g id="xtick_7">
     <g id="line2d_7">
      <g>
       <use xlink:href="#m552c1b29d8" x="132.462931" y="390.04" style="stroke: #000000; stroke-width: 0.8"/>
      </g>
     </g>
     <g id="text_7">
      <!-- 12 -->
      <g transform="translate(126.100431 404.638438) scale(0.1 -0.1)">
       <use xlink:href="#DejaVuSans-31"/>
       <use xlink:href="#DejaVuSans-32" transform="translate(63.623047 0)"/>
      </g>
     </g>
    </g>
    <g id="xtick_8">
     <g id="line2d_8">
      <g>
       <use xlink:href="#m552c1b29d8" x="17.145" y="390.04" style="stroke: #000000; stroke-width: 0.8"/>
      </g>
     </g>
     <g id="text_8">
      <!-- 14 -->
      <g transform="translate(10.7825 404.638438) scale(0.1 -0.1)">
       <use xlink:href="#DejaVuSans-31"/>
       <use xlink:href="#DejaVuSans-34" transform="translate(63.623047 0)"/>
      </g>
     </g>
    </g>
    <g id="text_9">
     <!-- Chemical Shift (ppm) -->
     <g transform="translate(375.717031 418.316562) scale(0.1 -0.1)">
      <defs>
       <path id="DejaVuSans-Bold-43" d="M 4288 256 
Q 3956 84 3597 -3 
Q 3238 -91 2847 -91 
Q 1681 -91 1000 561 
Q 319 1213 319 2328 
Q 319 3447 1000 4098 
Q 1681 4750 2847 4750 
Q 3238 4750 3597 4662 
Q 3956 4575 4288 4403 
L 4288 3438 
Q 3953 3666 3628 3772 
Q 3303 3878 2944 3878 
Q 2300 3878 1931 3465 
Q 1563 3053 1563 2328 
Q 1563 1606 1931 1193 
Q 2300 781 2944 781 
Q 3303 781 3628 887 
Q 3953 994 4288 1222 
L 4288 256 
z
" transform="scale(0.015625)"/>
       <path id="DejaVuSans-Bold-68" d="M 4056 2131 
L 4056 0 
L 2931 0 
L 2931 347 
L 2931 1625 
Q 2931 2084 2911 2256 
Q 2891 2428 2841 2509 
Q 2775 2619 2662 2680 
Q 2550 2741 2406 2741 
Q 2056 2741 1856 2470 
Q 1656 2200 1656 1722 
L 1656 0 
L 538 0 
L 538 4863 
L 1656 4863 
L 1656 2988 
Q 1909 3294 2193 3439 
Q 2478 3584 2822 3584 
Q 3428 3584 3742 3212 
Q 4056 2841 4056 2131 
z
" transform="scale(0.015625)"/>
       <path id="DejaVuSans-Bold-65" d="M 4031 1759 
L 4031 1441 
L 1416 1441 
Q 1456 1047 1700 850 
Q 1944 653 2381 653 
Q 2734 653 3104 758 
Q 3475 863 3866 1075 
L 3866 213 
Q 3469 63 3072 -14 
Q 2675 -91 2278 -91 
Q 1328 -91 801 392 
Q 275 875 275 1747 
Q 275 2603 792 3093 
Q 1309 3584 2216 3584 
Q 3041 3584 3536 3087 
Q 4031 2591 4031 1759 
z
M 2881 2131 
Q 2881 2450 2695 2645 
Q 2509 2841 2209 2841 
Q 1884 2841 1681 2658 
Q 1478 2475 1428 2131 
L 2881 2131 
z
" transform="scale(0.015625)"/>
       <path id="DejaVuSans-Bold-6d" d="M 3781 2919 
Q 3994 3244 4286 3414 
Q 4578 3584 4928 3584 
Q 5531 3584 5847 3212 
Q 6163 2841 6163 2131 
L 6163 0 
L 5038 0 
L 5038 1825 
Q 5041 1866 5042 1909 
Q 5044 1953 5044 2034 
Q 5044 2406 4934 2573 
Q 4825 2741 4581 2741 
Q 4263 2741 4089 2478 
Q 3916 2216 3909 1719 
L 3909 0 
L 2784 0 
L 2784 1825 
Q 2784 2406 2684 2573 
Q 2584 2741 2328 2741 
Q 2006 2741 1831 2477 
Q 1656 2213 1656 1722 
L 1656 0 
L 531 0 
L 531 3500 
L 1656 3500 
L 1656 2988 
Q 1863 3284 2130 3434 
Q 2397 3584 2719 3584 
Q 3081 3584 3359 3409 
Q 3638 3234 3781 2919 
z
" transform="scale(0.015625)"/>
       <path id="DejaVuSans-Bold-69" d="M 538 3500 
L 1656 3500 
L 1656 0 
L 538 0 
L 538 3500 
z
M 538 4863 
L 1656 4863 
L 1656 3950 
L 538 3950 
L 538 4863 
z
" transform="scale(0.015625)"/>
       <path id="DejaVuSans-Bold-63" d="M 3366 3391 
L 3366 2478 
Q 3138 2634 2908 2709 
Q 2678 2784 2431 2784 
Q 1963 2784 1702 2511 
Q 1441 2238 1441 1747 
Q 1441 1256 1702 982 
Q 1963 709 2431 709 
Q 2694 709 2930 787 
Q 3166 866 3366 1019 
L 3366 103 
Q 3103 6 2833 -42 
Q 2563 -91 2291 -91 
Q 1344 -91 809 395 
Q 275 881 275 1747 
Q 275 2613 809 3098 
Q 1344 3584 2291 3584 
Q 2566 3584 2833 3536 
Q 3100 3488 3366 3391 
z
" transform="scale(0.015625)"/>
       <path id="DejaVuSans-Bold-61" d="M 2106 1575 
Q 1756 1575 1579 1456 
Q 1403 1338 1403 1106 
Q 1403 894 1545 773 
Q 1688 653 1941 653 
Q 2256 653 2472 879 
Q 2688 1106 2688 1447 
L 2688 1575 
L 2106 1575 
z
M 3816 1997 
L 3816 0 
L 2688 0 
L 2688 519 
Q 2463 200 2181 54 
Q 1900 -91 1497 -91 
Q 953 -91 614 226 
Q 275 544 275 1050 
Q 275 1666 698 1953 
Q 1122 2241 2028 2241 
L 2688 2241 
L 2688 2328 
Q 2688 2594 2478 2717 
Q 2269 2841 1825 2841 
Q 1466 2841 1156 2769 
Q 847 2697 581 2553 
L 581 3406 
Q 941 3494 1303 3539 
Q 1666 3584 2028 3584 
Q 2975 3584 3395 3211 
Q 3816 2838 3816 1997 
z
" transform="scale(0.015625)"/>
       <path id="DejaVuSans-Bold-6c" d="M 538 4863 
L 1656 4863 
L 1656 0 
L 538 0 
L 538 4863 
z
" transform="scale(0.015625)"/>
       <path id="DejaVuSans-Bold-20" transform="scale(0.015625)"/>
       <path id="DejaVuSans-Bold-53" d="M 3834 4519 
L 3834 3531 
Q 3450 3703 3084 3790 
Q 2719 3878 2394 3878 
Q 1963 3878 1756 3759 
Q 1550 3641 1550 3391 
Q 1550 3203 1689 3098 
Q 1828 2994 2194 2919 
L 2706 2816 
Q 3484 2659 3812 2340 
Q 4141 2022 4141 1434 
Q 4141 663 3683 286 
Q 3225 -91 2284 -91 
Q 1841 -91 1394 -6 
Q 947 78 500 244 
L 500 1259 
Q 947 1022 1364 901 
Q 1781 781 2169 781 
Q 2563 781 2772 912 
Q 2981 1044 2981 1288 
Q 2981 1506 2839 1625 
Q 2697 1744 2272 1838 
L 1806 1941 
Q 1106 2091 782 2419 
Q 459 2747 459 3303 
Q 459 4000 909 4375 
Q 1359 4750 2203 4750 
Q 2588 4750 2994 4692 
Q 3400 4634 3834 4519 
z
" transform="scale(0.015625)"/>
       <path id="DejaVuSans-Bold-66" d="M 2841 4863 
L 2841 4128 
L 2222 4128 
Q 1984 4128 1890 4042 
Q 1797 3956 1797 3744 
L 1797 3500 
L 2753 3500 
L 2753 2700 
L 1797 2700 
L 1797 0 
L 678 0 
L 678 2700 
L 122 2700 
L 122 3500 
L 678 3500 
L 678 3744 
Q 678 4316 997 4589 
Q 1316 4863 1984 4863 
L 2841 4863 
z
" transform="scale(0.015625)"/>
       <path id="DejaVuSans-Bold-74" d="M 1759 4494 
L 1759 3500 
L 2913 3500 
L 2913 2700 
L 1759 2700 
L 1759 1216 
Q 1759 972 1856 886 
Q 1953 800 2241 800 
L 2816 800 
L 2816 0 
L 1856 0 
Q 1194 0 917 276 
Q 641 553 641 1216 
L 641 2700 
L 84 2700 
L 84 3500 
L 641 3500 
L 641 4494 
L 1759 4494 
z
" transform="scale(0.015625)"/>
       <path id="DejaVuSans-Bold-28" d="M 2413 -844 
L 1484 -844 
Q 1006 -72 778 623 
Q 550 1319 550 2003 
Q 550 2688 779 3389 
Q 1009 4091 1484 4856 
L 2413 4856 
Q 2013 4116 1813 3408 
Q 1613 2700 1613 2009 
Q 1613 1319 1811 609 
Q 2009 -100 2413 -844 
z
" transform="scale(0.015625)"/>
       <path id="DejaVuSans-Bold-70" d="M 1656 506 
L 1656 -1331 
L 538 -1331 
L 538 3500 
L 1656 3500 
L 1656 2988 
Q 1888 3294 2169 3439 
Q 2450 3584 2816 3584 
Q 3463 3584 3878 3070 
Q 4294 2556 4294 1747 
Q 4294 938 3878 423 
Q 3463 -91 2816 -91 
Q 2450 -91 2169 54 
Q 1888 200 1656 506 
z
M 2400 2772 
Q 2041 2772 1848 2508 
Q 1656 2244 1656 1747 
Q 1656 1250 1848 986 
Q 2041 722 2400 722 
Q 2759 722 2948 984 
Q 3138 1247 3138 1747 
Q 3138 2247 2948 2509 
Q 2759 2772 2400 2772 
z
" transform="scale(0.015625)"/>
       <path id="DejaVuSans-Bold-29" d="M 513 -844 
Q 913 -100 1113 609 
Q 1313 1319 1313 2009 
Q 1313 2700 1113 3408 
Q 913 4116 513 4856 
L 1441 4856 
Q 1916 4091 2145 3389 
Q 2375 2688 2375 2003 
Q 2375 1319 2147 623 
Q 1919 -72 1441 -844 
L 513 -844 
z
" transform="scale(0.015625)"/>
      </defs>
      <use xlink:href="#DejaVuSans-Bold-43"/>
      <use xlink:href="#DejaVuSans-Bold-68" transform="translate(73.388672 0)"/>
      <use xlink:href="#DejaVuSans-Bold-65" transform="translate(144.580078 0)"/>
      <use xlink:href="#DejaVuSans-Bold-6d" transform="translate(212.402344 0)"/>
      <use xlink:href="#DejaVuSans-Bold-69" transform="translate(316.601562 0)"/>
      <use xlink:href="#DejaVuSans-Bold-63" transform="translate(350.878906 0)"/>
      <use xlink:href="#DejaVuSans-Bold-61" transform="translate(410.15625 0)"/>
      <use xlink:href="#DejaVuSans-Bold-6c" transform="translate(477.636719 0)"/>
      <use xlink:href="#DejaVuSans-Bold-20" transform="translate(511.914062 0)"/>
      <use xlink:href="#DejaVuSans-Bold-53" transform="translate(546.728516 0)"/>
      <use xlink:href="#DejaVuSans-Bold-68" transform="translate(618.75 0)"/>
      <use xlink:href="#DejaVuSans-Bold-69" transform="translate(689.941406 0)"/>
      <use xlink:href="#DejaVuSans-Bold-66" transform="translate(724.21875 0)"/>
      <use xlink:href="#DejaVuSans-Bold-74" transform="translate(767.724609 0)"/>
      <use xlink:href="#DejaVuSans-Bold-20" transform="translate(815.527344 0)"/>
      <use xlink:href="#DejaVuSans-Bold-28" transform="translate(850.341797 0)"/>
      <use xlink:href="#DejaVuSans-Bold-70" transform="translate(896.044922 0)"/>
      <use xlink:href="#DejaVuSans-Bold-70" transform="translate(967.626953 0)"/>
      <use xlink:href="#DejaVuSans-Bold-6d" transform="translate(1039.208984 0)"/>
      <use xlink:href="#DejaVuSans-Bold-29" transform="translate(1143.408203 0)"/>
     </g>
    </g>
   </g>
   <g id="line2d_9">
    <path d="M 16.201101 277.928833 
L 25.334785 277.948459 
L 25.504188 277.923446 
L 25.857113 277.925246 
L 26.393558 277.931516 
L 26.647663 277.912053 
L 26.986471 277.914946 
L 27.113524 277.905342 
L 27.311161 277.922926 
L 27.579384 277.905804 
L 27.889957 277.91844 
L 28.101712 277.926576 
L 29.174602 277.929097 
L 29.626345 277.937369 
L 30.783937 277.901551 
L 30.995692 277.924659 
L 31.419201 277.89265 
L 31.560371 277.925928 
L 31.885062 277.900692 
L 33.974374 277.919334 
L 34.143778 277.928799 
L 34.779042 277.901852 
L 35.315487 277.896281 
L 35.527241 277.93122 
L 35.668411 277.916515 
L 35.894283 277.889874 
L 36.204856 277.888008 
L 36.416611 277.874518 
L 36.713067 277.903811 
L 36.967173 277.911756 
L 37.193045 277.887472 
L 38.308286 277.907476 
L 38.80238 277.869881 
L 39.070602 277.895576 
L 43.84214 277.893836 
L 44.096246 277.853634 
L 44.237416 277.873627 
L 44.985615 277.875503 
L 45.169136 277.887977 
L 45.352657 277.889868 
L 45.733815 277.879674 
L 46.030272 277.893209 
L 46.467898 277.89939 
L 46.679653 277.879491 
L 47.074928 277.854434 
L 47.357267 277.868573 
L 48.23252 277.885015 
L 49.248942 277.876829 
L 49.601867 277.858414 
L 49.799504 277.842492 
L 50.434768 277.859113 
L 50.717108 277.857228 
L 52.058221 277.861016 
L 52.425262 277.881986 
L 53.55462 277.846751 
L 53.964012 277.853651 
L 59.060241 277.841812 
L 59.286112 277.836349 
L 59.554335 277.840369 
L 59.794323 277.84198 
L 60.104897 277.835214 
L 60.598991 277.848511 
L 60.951915 277.836285 
L 61.615413 277.824741 
L 62.23656 277.841384 
L 62.998877 277.854113 
L 63.2671 277.849838 
L 63.464737 277.840168 
L 63.789428 277.847035 
L 66.499887 277.82383 
L 66.979864 277.799459 
L 67.163385 277.814668 
L 68.546849 277.830264 
L 68.730369 277.852377 
L 69.182113 277.790076 
L 69.52092 277.824604 
L 69.873844 277.806401 
L 70.071482 277.831961 
L 70.297354 277.784864 
L 71.045553 277.815634 
L 71.412595 277.800285 
L 74.70185 277.79559 
L 74.955956 277.790233 
L 75.873559 277.810853 
L 76.155899 277.805373 
L 76.875865 277.789214 
L 77.059385 277.778852 
L 77.214672 277.780937 
L 77.440544 277.78064 
L 82.59324 277.81538 
L 82.804995 277.811131 
L 83.214387 277.776135 
L 83.581428 277.795932 
L 84.202575 277.761721 
L 84.513149 277.803729 
L 84.73902 277.790663 
L 85.34605 277.773329 
L 85.995431 277.765934 
L 86.334239 277.795397 
L 86.771865 277.780723 
L 87.110672 277.754476 
L 87.30831 277.756413 
L 87.604766 277.774369 
L 88.409434 277.774586 
L 88.776475 277.810378 
L 89.157634 277.783912 
L 90.216407 277.780872 
L 90.371694 277.76158 
L 90.583448 277.781258 
L 91.134011 277.806529 
L 91.345765 277.784337 
L 91.529286 277.763013 
L 91.839859 277.760944 
L 92.206901 277.77368 
L 92.644527 277.771221 
L 96.13142 277.77806 
L 96.27259 277.744678 
L 110.728373 277.70166 
L 111.236585 277.750933 
L 111.391871 277.74449 
L 111.603626 277.721746 
L 111.885965 277.733837 
L 112.182422 277.726261 
L 114.116448 277.721788 
L 114.314085 277.723001 
L 115.161104 277.744861 
L 117.377469 277.722264 
L 117.70216 277.725624 
L 118.91622 277.708998 
L 119.142091 277.706619 
L 119.38208 277.720449 
L 119.819706 277.708897 
L 120.116163 277.739396 
L 120.45497 277.742524 
L 123.701874 277.744622 
L 123.81481 277.684995 
L 124.294787 277.714338 
L 124.690063 277.703315 
L 125.000636 277.724125 
L 125.988825 277.724989 
L 126.214696 277.722145 
L 126.3841 277.706971 
L 126.70879 277.732341 
L 127.047598 277.686288 
L 127.428756 277.670963 
L 127.640511 277.706261 
L 127.809915 277.706739 
L 128.628699 277.717987 
L 128.868688 277.716615 
L 129.151027 277.683163 
L 141.88454 277.655871 
L 142.20923 277.681648 
L 142.49157 277.692727 
L 143.253886 277.686817 
L 143.380939 277.648558 
L 143.56446 277.652767 
L 143.790332 277.688034 
L 144.256192 277.678132 
L 145.766708 277.671556 
L 146.034931 277.642017 
L 147.164289 277.621362 
L 147.34781 277.659039 
L 147.601915 277.642956 
L 148.124243 277.646691 
L 148.505402 277.614482 
L 148.914794 277.60094 
L 149.197133 277.63638 
L 149.423005 277.614411 
L 149.620643 277.619514 
L 149.81828 277.561759 
L 151.286446 277.558126 
L 151.441733 277.56558 
L 151.597019 277.575278 
L 151.794657 277.567896 
L 152.458155 277.553326 
L 152.938132 277.554119 
L 154.829807 277.526478 
L 154.95686 277.56043 
L 155.14038 277.564777 
L 155.690942 277.555012 
L 155.916814 277.588333 
L 156.467376 277.578618 
L 156.679131 277.585313 
L 156.820301 277.609591 
L 159.163719 277.636147 
L 159.347239 277.635119 
L 159.700164 277.635826 
L 159.954269 277.618305 
L 163.568215 277.604929 
L 163.6388 277.587762 
L 163.681151 277.625786 
L 163.935256 277.64382 
L 164.24583 277.627056 
L 167.648021 277.622686 
L 167.845659 277.655429 
L 168.311519 277.636195 
L 172.236038 277.628816 
L 172.405442 277.646632 
L 172.588963 277.654149 
L 172.984238 277.642168 
L 173.859491 277.647867 
L 177.953414 277.593889 
L 178.433391 277.640795 
L 178.67338 277.643315 
L 178.969836 277.632761 
L 179.379228 277.653503 
L 179.576866 277.601917 
L 179.760387 277.629358 
L 179.943907 277.641563 
L 180.240364 277.592333 
L 180.635639 277.641863 
L 180.847394 277.648043 
L 181.016798 277.637042 
L 181.270903 277.620817 
L 181.510892 277.624846 
L 182.03322 277.621039 
L 182.230858 277.618709 
L 182.400261 277.606247 
L 182.753186 277.610065 
L 183.063759 277.631332 
L 187.708244 277.633284 
L 187.835297 277.626474 
L 188.018818 277.609826 
L 188.315274 277.595516 
L 188.908187 277.624797 
L 189.515217 277.589473 
L 189.698738 277.592531 
L 189.910493 277.612451 
L 190.136364 277.580152 
L 190.348119 277.604905 
L 190.9975 277.61444 
L 191.124553 277.623046 
L 191.46336 277.623295 
L 191.675115 277.6061 
L 197.223086 277.613598 
L 197.378373 277.589754 
L 199.07241 277.595815 
L 199.326516 277.614391 
L 199.622972 277.595743 
L 200.088832 277.593598 
L 201.062904 277.598297 
L 201.331126 277.601795 
L 201.585232 277.582341 
L 201.96639 277.629439 
L 202.531069 277.59893 
L 202.742824 277.601863 
L 202.883994 277.596645 
L 203.03928 277.564732 
L 204.705084 277.595575 
L 205.086242 277.561606 
L 205.28388 277.543715 
L 206.441472 277.596503 
L 206.610875 277.59043 
L 206.992034 277.579222 
L 207.89552 277.571218 
L 208.064924 277.593347 
L 208.234328 277.587091 
L 208.78489 277.582846 
L 209.123697 277.568797 
L 209.646025 277.573294 
L 210.18247 277.594425 
L 210.380108 277.591018 
L 210.591863 277.580713 
L 213.598779 277.594823 
L 213.782299 277.558053 
L 214.234043 277.598083 
L 214.403446 277.574379 
L 214.558733 277.580401 
L 214.798722 277.571966 
L 215.17988 277.563432 
L 217.170374 277.573929 
L 217.438596 277.574971 
L 217.847988 277.569355 
L 218.116211 277.552155 
L 218.39855 277.568142 
L 218.596188 277.544119 
L 218.807943 277.565541 
L 219.273803 277.540657 
L 222.32307 277.560473 
L 222.605409 277.572573 
L 222.831281 277.546373 
L 223.07127 277.56618 
L 223.635949 277.575154 
L 223.847703 277.544451 
L 224.313563 277.56434 
L 225.442922 277.553953 
L 225.668793 277.577223 
L 229.663897 277.507022 
L 229.833301 277.563144 
L 230.666203 277.557487 
L 230.948542 277.562522 
L 231.343818 277.541899 
L 231.61204 277.544886 
L 231.908497 277.543875 
L 232.148485 277.560116 
L 233.037855 277.576427 
L 233.531949 277.550924 
L 237.851744 277.556038 
L 238.642294 277.537755 
L 239.404611 277.533603 
L 239.588132 277.512515 
L 239.898705 277.557175 
L 240.195162 277.556037 
L 240.548086 277.547261 
L 242.962089 277.554947 
L 243.286779 277.53629 
L 244.020862 277.525914 
L 244.317319 277.552459 
L 244.811413 277.533697 
L 245.771367 277.502315 
L 246.067824 277.516331 
L 246.279578 277.528337 
L 247.338352 277.519461 
L 247.705393 277.521276 
L 247.973616 277.492311 
L 248.143019 277.520893 
L 249.371196 277.532286 
L 249.653536 277.521334 
L 251.728731 277.512425 
L 252.025188 277.532884 
L 256.669673 277.509564 
L 257.262586 277.508017 
L 257.629627 277.523886 
L 260.241268 277.545264 
L 260.467139 277.533233 
L 260.636543 277.516194 
L 263.516406 277.540715 
L 263.671693 277.55228 
L 264.15167 277.546981 
L 264.335191 277.541163 
L 267.553861 277.460603 
L 267.864435 277.43333 
L 268.104423 277.497676 
L 269.064378 277.52226 
L 269.389068 277.49694 
L 269.671408 277.518979 
L 270.109034 277.5446 
L 270.476075 277.535324 
L 270.645479 277.562329 
L 270.885468 277.578032 
L 271.280743 277.571234 
L 271.492498 277.534368 
L 272.240698 277.538632 
L 272.480686 277.545851 
L 272.748909 277.533798 
L 272.904195 277.538154 
L 273.158301 277.552665 
L 273.341822 277.567678 
L 273.680629 277.556214 
L 274.739402 277.540614 
L 275.092327 277.568075 
L 275.431134 277.584344 
L 275.784059 277.60498 
L 276.094632 277.567101 
L 276.419322 277.469786 
L 276.504024 277.409566 
L 276.560492 277.473527 
L 276.772247 277.46103 
L 276.927534 277.202732 
L 277.08282 276.458611 
L 277.238107 274.15142 
L 277.351043 268.604951 
L 277.520447 246.285131 
L 277.591031 253.542204 
L 277.802786 272.588749 
L 278.028658 275.799117 
L 278.268646 276.610442 
L 278.805091 277.01065 
L 279.129782 277.184869 
L 279.398004 277.203121 
L 279.750929 277.253586 
L 281.388498 277.351816 
L 282.362569 277.359065 
L 282.616675 277.39711 
L 282.870781 277.376473 
L 283.251939 277.409811 
L 283.717799 277.383791 
L 283.986022 277.398938 
L 284.197776 277.412853 
L 284.804806 277.414931 
L 285.623591 277.435864 
L 285.821229 277.429495 
L 286.65413 277.405824 
L 286.894119 277.42279 
L 287.86819 277.385736 
L 288.051711 277.423162 
L 288.489337 277.428823 
L 288.715209 277.420804 
L 289.025782 277.408024 
L 289.294005 277.438237 
L 289.54811 277.424306 
L 289.759865 277.421731 
L 290.098672 277.426374 
L 291.538604 277.394276 
L 291.820943 277.40095 
L 291.990347 277.425166 
L 292.653845 277.444497 
L 293.289109 277.445224 
L 294.305531 277.442022 
L 294.601988 277.454917 
L 294.813742 277.483644 
L 301.08168 277.411371 
L 301.236967 277.43456 
L 304.512105 277.412624 
L 304.90738 277.408666 
L 305.217954 277.448926 
L 305.584995 277.431941 
L 305.740282 277.416115 
L 307.759009 277.412888 
L 308.22487 277.418506 
L 308.803666 277.392458 
L 308.973069 277.410549 
L 309.890673 277.40565 
L 310.04596 277.416601 
L 310.300065 277.419819 
L 310.638873 277.415376 
L 310.907095 277.425158 
L 311.090616 277.40946 
L 311.316487 277.42353 
L 312.897589 277.435761 
L 312.996408 277.446013 
L 313.024642 277.4241 
L 313.250513 277.409182 
L 313.815192 277.38834 
L 314.026947 277.414863 
L 314.295169 277.408608 
L 314.61986 277.389415 
L 314.916316 277.41465 
L 316.920927 277.38888 
L 317.04798 277.411485 
L 317.37267 277.402468 
L 317.880881 277.39093 
L 318.459677 277.433528 
L 323.11828 277.391045 
L 323.3018 277.395172 
L 326.153429 277.382814 
L 326.506354 277.430377 
L 326.703991 277.390703 
L 327.127501 277.40076 
L 327.282788 277.395481 
L 328.567432 277.415427 
L 328.76507 277.412699 
L 329.287398 277.44501 
L 338.604602 277.403193 
L 339.028112 277.371477 
L 339.225749 277.399193 
L 340.213938 277.391209 
L 340.468043 277.387897 
L 340.976254 277.339178 
L 341.08919 277.313508 
L 341.117424 277.349674 
L 341.399764 277.397076 
L 346.030132 277.364385 
L 346.171302 277.376401 
L 346.326588 277.383971 
L 346.69363 277.401792 
L 347.032437 277.387526 
L 347.230075 277.386577 
L 348.51472 277.426267 
L 348.726474 277.370889 
L 349.079399 277.408045 
L 349.234685 277.373781 
L 349.517025 277.38571 
L 349.700546 277.384601 
L 350.349927 277.390327 
L 350.547564 277.422692 
L 351.281647 277.410156 
L 351.648688 277.409191 
L 352.48159 277.392773 
L 352.820397 277.395605 
L 353.498012 277.382388 
L 355.855547 277.371724 
L 356.039068 277.404164 
L 357.111958 277.388153 
L 357.239011 277.363452 
L 357.464883 277.348855 
L 357.676637 277.389189 
L 358.100146 277.37693 
L 358.326018 277.393767 
L 370.890127 277.434967 
L 371.059531 277.461293 
L 371.694794 277.434339 
L 371.963017 277.444546 
L 375.576963 277.526633 
L 375.887536 277.547074 
L 376.085174 277.53574 
L 376.325163 277.264379 
L 376.494566 276.498553 
L 376.635736 274.602826 
L 376.875725 266.8052 
L 377.031011 248.537384 
L 377.101596 255.133834 
L 377.313351 267.505264 
L 377.510989 272.799692 
L 377.539223 272.80505 
L 377.567457 272.709744 
L 377.652158 271.403362 
L 377.793328 264.301461 
L 377.948615 253.841813 
L 378.0192 246.391323 
L 378.075668 251.094192 
L 378.301539 269.61765 
L 378.710932 275.708946 
L 379.021505 276.372463 
L 379.572067 276.781171 
L 380.080278 276.889249 
L 380.489671 276.991623 
L 382.889557 277.096001 
L 384.964752 277.191833 
L 385.105922 277.180074 
L 385.289442 277.190631 
L 385.727069 277.200988 
L 386.207046 277.1041 
L 386.588204 277.128955 
L 386.814076 277.15795 
L 387.548159 277.102156 
L 388.112838 277.223721 
L 388.635166 277.251696 
L 389.002207 277.214849 
L 389.651588 277.261633 
L 389.849226 277.235487 
L 390.075097 277.224782 
L 390.329203 277.24943 
L 390.583309 277.132512 
L 390.752712 277.168262 
L 391.077403 277.218453 
L 391.726784 277.161011 
L 391.966772 277.230853 
L 398.827623 277.296905 
L 399.011143 277.006964 
L 399.251132 276.242687 
L 399.392302 274.443519 
L 399.505237 269.017953 
L 399.618173 258.656372 
L 399.674641 263.127711 
L 399.872279 274.204191 
L 400.069917 275.657224 
L 400.211086 275.654484 
L 400.295788 275.368438 
L 400.408724 274.11567 
L 400.52166 269.460151 
L 400.648713 257.488603 
L 400.70518 262.020388 
L 400.902818 273.921359 
L 401.12869 275.888832 
L 401.45338 276.635529 
L 402.173346 276.959974 
L 402.469802 277.05251 
L 402.836844 277.054356 
L 403.867383 277.104373 
L 404.714402 277.082153 
L 404.855571 277.099023 
L 405.222613 277.143235 
L 405.730824 277.17878 
L 406.196684 277.16345 
L 406.606076 277.153761 
L 406.987235 277.146901 
L 408.441283 277.228899 
L 408.850676 277.082519 
L 409.429472 277.192522 
L 409.655343 277.160972 
L 409.909449 277.063502 
L 410.714117 277.185319 
L 410.897637 277.197923 
L 411.264679 277.167634 
L 411.434082 277.162077 
L 411.659954 277.219794 
L 415.231549 277.190201 
L 415.59859 277.132894 
L 416.360907 277.204838 
L 416.544428 277.226152 
L 416.869118 277.209292 
L 417.123224 277.216545 
L 417.490265 277.191321 
L 417.800839 277.191781 
L 417.970242 277.213073 
L 418.153763 277.172378 
L 420.934807 277.193071 
L 421.273615 277.220628 
L 422.205335 277.239584 
L 422.459441 277.208397 
L 422.812365 277.228587 
L 423.080588 277.24628 
L 423.786436 277.210701 
L 424.054659 277.246613 
L 424.407583 277.185785 
L 424.661689 277.155672 
L 424.802859 277.203365 
L 425.056964 277.229584 
L 425.240485 277.222998 
L 426.920405 277.26792 
L 427.188628 277.192413 
L 427.555669 277.230869 
L 427.767424 277.258254 
L 428.134465 277.222313 
L 428.727378 277.263597 
L 428.910899 277.269758 
L 429.249706 277.276841 
L 429.630865 277.23947 
L 430.096725 277.25518 
L 430.308479 277.266621 
L 431.522539 277.194246 
L 431.762528 277.199236 
L 432.17192 277.126635 
L 432.355441 277.152943 
L 432.482494 277.172624 
L 432.736599 277.242498 
L 433.089524 277.211386 
L 433.99301 277.26942 
L 434.204765 277.233298 
L 436.378779 277.336058 
L 436.576417 277.297297 
L 439.45628 277.344728 
L 439.625684 277.089026 
L 439.78097 276.506836 
L 439.92214 274.577069 
L 440.162129 267.197681 
L 440.275065 250.772513 
L 440.331532 242.52689 
L 440.388 247.397218 
L 440.599755 264.240338 
L 440.81151 272.324889 
L 440.839744 272.429555 
L 440.882095 272.267368 
L 440.980913 270.305862 
L 441.206785 258.460468 
L 441.333838 242.312797 
L 441.390306 248.693362 
L 441.587943 268.500827 
L 442.138505 275.829011 
L 442.547898 276.370804 
L 443.296097 276.685977 
L 443.493735 276.729973 
L 443.874894 276.798491 
L 444.114882 276.865193 
L 444.284286 276.865013 
L 444.63721 276.870917 
L 444.848965 276.919504 
L 445.583048 276.951945 
L 445.752451 276.961736 
L 446.020674 276.962205 
L 446.444183 276.967225 
L 446.712406 277.0248 
L 446.952394 276.956402 
L 447.150032 276.951954 
L 447.488839 277.053349 
L 447.700594 277.027915 
L 448.067635 276.955772 
L 448.406443 276.997996 
L 448.589964 276.988543 
L 448.787601 277.061373 
L 449.422865 277.006848 
L 449.648737 276.912192 
L 450.001661 276.978147 
L 450.255767 276.997407 
L 450.509872 276.863145 
L 451.45571 277.093224 
L 451.709815 277.055534 
L 452.613302 277.018537 
L 452.768588 277.084035 
L 453.093279 277.090332 
L 453.573256 277.103887 
L 453.714426 277.097312 
L 454.660263 277.112372 
L 455.620218 276.902486 
L 455.831972 276.164069 
L 455.944908 274.803745 
L 456.071961 269.527844 
L 456.156663 265.064425 
L 456.213131 266.806724 
L 456.297833 268.946538 
L 456.340183 267.993429 
L 456.424885 264.258524 
L 456.481353 266.355989 
L 456.707225 274.579521 
L 456.820161 275.062027 
L 456.862512 274.992233 
L 456.947213 274.483693 
L 457.060149 271.661776 
L 457.187202 264.934084 
L 457.257787 267.165433 
L 457.328372 268.772466 
L 457.370723 267.92155 
L 457.455425 264.326418 
L 457.511892 266.270704 
L 457.737764 274.717399 
L 457.977753 276.129912 
L 458.274209 276.521528 
L 458.824771 276.744814 
L 459.276514 276.794406 
L 459.53062 276.823765 
L 460.024714 276.85899 
L 460.194118 276.858409 
L 461.06937 276.877322 
L 461.267008 276.926259 
L 463.469256 276.989634 
L 463.63866 276.99918 
L 464.316275 276.943832 
L 464.471562 276.9016 
L 464.669199 276.886261 
L 465.840908 276.884906 
L 466.236184 276.913495 
L 466.490289 276.882129 
L 466.984383 276.937432 
L 467.167904 276.995255 
L 467.774934 277.006309 
L 468.198443 277.003016 
L 468.396081 277.03042 
L 468.791356 277.046147 
L 469.116047 276.976448 
L 469.511322 277.013355 
L 469.934831 277.024128 
L 470.160703 277.047399 
L 470.372458 277.04768 
L 470.64068 277.02721 
L 471.304178 277.027023 
L 471.445348 277.045577 
L 471.614752 277.04152 
L 471.953559 277.026976 
L 472.306483 277.124475 
L 472.871163 277.162764 
L 473.0688 277.168881 
L 473.20997 277.164218 
L 473.379374 277.108542 
L 473.633479 276.651946 
L 473.774649 275.741848 
L 473.915819 273.000765 
L 474.042872 264.542833 
L 474.155807 256.119313 
L 474.198158 257.488833 
L 474.28286 261.001922 
L 474.325211 259.919237 
L 474.409913 255.964507 
L 474.466381 258.140472 
L 474.74872 273.91299 
L 474.988709 275.773467 
L 475.228698 276.243997 
L 475.426335 276.455285 
L 475.77926 276.634649 
L 476.019248 276.624727 
L 476.259237 276.667452 
L 476.499225 276.709496 
L 476.640395 276.732417 
L 477.03567 276.802821 
L 477.430946 276.772753 
L 477.882689 276.789769 
L 478.277964 276.865297 
L 478.489719 276.835196 
L 478.927345 276.811824 
L 479.1391 276.84436 
L 479.322621 276.881131 
L 479.435556 276.892003 
L 479.449673 276.875284 
L 479.576726 276.87284 
L 479.590843 276.889584 
L 479.74613 276.859796 
L 480.169639 276.895056 
L 480.339043 276.903201 
L 480.748435 276.880705 
L 481.115477 276.839882 
L 481.256646 276.896219 
L 483.628298 276.729935 
L 483.727117 276.737671 
L 483.741234 276.757916 
L 483.952989 276.834758 
L 484.672955 276.895033 
L 484.92706 276.930353 
L 485.364686 276.937093 
L 486.042301 276.96018 
L 486.239939 276.950198 
L 487.312829 276.904068 
L 487.49635 276.966086 
L 487.67987 276.912288 
L 488.089263 276.934651 
L 488.343368 276.951068 
L 500.582787 276.970655 
L 500.780424 276.925518 
L 500.935711 276.867635 
L 501.387454 276.878352 
L 501.96625 276.922356 
L 502.121537 276.941235 
L 502.615631 276.897284 
L 506.300162 276.954671 
L 506.709554 276.859041 
L 506.893075 276.858102 
L 507.10483 276.886582 
L 507.274233 276.853293 
L 507.613041 276.838687 
L 508.841218 276.923434 
L 509.024738 276.996941 
L 509.038855 276.979082 
L 509.222376 276.896911 
L 509.547067 276.89927 
L 509.956459 276.890163 
L 510.168214 276.896883 
L 510.492904 276.857895 
L 510.888179 276.839761 
L 511.241104 276.905953 
L 511.452858 276.875418 
L 511.777549 276.83315 
L 512.836322 276.869554 
L 512.963375 276.847394 
L 513.231597 276.830475 
L 517.946667 276.818236 
L 518.087837 276.821185 
L 518.553697 276.899869 
L 518.708984 276.929555 
L 518.836037 276.919808 
L 519.061908 276.872186 
L 519.217195 276.838488 
L 519.471301 276.789552 
L 520.403021 276.901528 
L 520.657127 276.855497 
L 521.39121 276.821253 
L 521.588847 276.794984 
L 521.899421 276.833534 
L 522.097058 276.86121 
L 522.252345 276.859474 
L 522.534685 276.812837 
L 522.746439 276.822735 
L 523.25465 276.820686 
L 523.720511 276.797907 
L 527.659147 276.758009 
L 527.842668 276.777597 
L 528.237943 276.810879 
L 529.212014 276.836474 
L 529.494354 276.87052 
L 529.776693 276.84035 
L 532.529504 276.822373 
L 532.670673 276.827992 
L 533.009481 276.822987 
L 533.461224 276.780823 
L 538.980962 276.828926 
L 539.136249 276.838623 
L 539.446822 276.757416 
L 540.307958 276.68336 
L 540.519712 276.730542 
L 546.844118 276.471505 
L 547.902891 276.122258 
L 548.382868 275.789007 
L 548.65109 275.485567 
L 548.848728 275.198121 
L 549.131068 274.489696 
L 549.582811 272.4061 
L 550.161607 269.536935 
L 550.274543 269.624591 
L 550.47218 270.484548 
L 551.206263 274.083847 
L 551.587422 275.051206 
L 552.9003 276.098029 
L 553.78967 276.278711 
L 554.072009 276.29363 
L 554.453168 276.336631 
L 555.540175 276.449807 
L 555.751929 276.441352 
L 555.93545 276.479149 
L 556.316609 276.431521 
L 556.570714 276.501694 
L 557.093042 276.554989 
L 557.262446 276.543959 
L 557.460084 276.572016 
L 557.770657 276.509122 
L 558.264751 276.560382 
L 558.50474 276.517982 
L 559.563513 276.52175 
L 559.775268 276.528509 
L 561.906931 276.65566 
L 562.033984 276.654876 
L 562.273972 276.597395 
L 562.711599 276.679201 
L 563.205693 276.52958 
L 563.389214 276.557725 
L 564.010361 276.562583 
L 564.264466 276.593027 
L 564.476221 276.562629 
L 564.702092 276.59834 
L 565.055017 276.563847 
L 566.410246 276.60011 
L 566.593767 276.575029 
L 567.596072 276.608327 
L 567.920763 276.591349 
L 568.132518 276.594622 
L 568.513676 276.583772 
L 569.036004 276.546096 
L 569.995958 276.553551 
L 570.292415 276.48305 
L 570.758275 276.25142 
L 570.814743 276.230895 
L 570.857094 276.268884 
L 571.15355 276.513308 
L 571.520592 276.442879 
L 572.537014 276.550553 
L 572.734652 276.565183 
L 572.875822 276.503663 
L 573.031108 276.51354 
L 573.285214 276.64262 
L 573.412267 276.580651 
L 573.567553 276.566067 
L 573.807542 276.613122 
L 574.245168 276.504315 
L 574.626327 276.563933 
L 574.908666 276.537728 
L 575.176889 276.619247 
L 575.6851 276.593481 
L 576.207428 276.609154 
L 576.461533 276.530231 
L 577.379137 276.50402 
L 577.534424 276.472733 
L 577.788529 276.377422 
L 577.929699 275.994159 
L 578.084986 274.945054 
L 578.212039 272.556559 
L 578.339091 264.207155 
L 578.452027 251.024119 
L 578.494378 255.020196 
L 578.706133 270.506487 
L 578.748484 270.733991 
L 578.790835 270.503937 
L 578.889653 267.932911 
L 579.002589 257.069898 
L 579.143759 223.834655 
L 579.214344 239.792902 
L 579.411982 267.205411 
L 579.539034 269.666978 
L 579.581385 269.428723 
L 579.666087 266.681654 
L 579.779023 255.293064 
L 579.835491 248.508088 
L 579.891959 253.360163 
L 580.103713 271.385879 
L 580.329585 274.360279 
L 580.569574 275.190189 
L 580.837796 275.545476 
L 581.854218 276.00063 
L 582.969459 276.150382 
L 583.096512 276.116019 
L 583.887063 276.13984 
L 584.155285 276.153068 
L 584.748198 276.155016 
L 584.945836 276.183592 
L 585.25641 276.249779 
L 586.964564 276.150283 
L 587.091617 276.056573 
L 587.11985 276.097808 
L 587.331605 276.196152 
L 587.501009 276.187642 
L 587.68453 276.054962 
L 587.783348 275.923402 
L 587.825699 276.000347 
L 588.023337 276.259917 
L 588.658601 276.205485 
L 592.357249 276.278917 
L 592.484301 276.250106 
L 592.738407 276.23591 
L 593.303086 276.231256 
L 593.65601 276.16567 
L 609.551726 276.018603 
L 609.819948 276.022041 
L 610.257574 276.018396 
L 611.132827 276.013184 
L 611.485751 275.999101 
L 611.739857 276.017077 
L 612.361004 276.04132 
L 612.488057 276.063752 
L 615.720844 276.02698 
L 615.932599 276.035614 
L 616.186704 276.071204 
L 616.652565 276.058965 
L 617.019606 275.906783 
L 617.273712 276.003859 
L 617.485466 275.934943 
L 617.598402 275.849616 
L 617.753689 275.635886 
L 617.79604 275.685088 
L 618.064262 275.989561 
L 618.276017 275.922184 
L 618.487771 275.686135 
L 618.572473 275.585405 
L 618.614824 275.656187 
L 618.925398 275.988346 
L 619.518311 275.955446 
L 619.758299 276.042799 
L 620.097107 275.99282 
L 620.704137 275.965141 
L 621.226465 276.022817 
L 621.974665 276.012244 
L 622.51111 276.074475 
L 622.638162 276.020974 
L 622.864034 276.008785 
L 623.753404 275.867175 
L 624.134562 275.363975 
L 624.275732 274.475834 
L 624.402784 272.449737 
L 624.529837 266.34057 
L 624.671007 253.403857 
L 624.741592 257.617919 
L 624.967464 270.510708 
L 625.009814 270.645619 
L 625.052165 270.41207 
L 625.150984 268.274347 
L 625.26392 260.90895 
L 625.390973 235.385052 
L 625.489792 205.642935 
L 625.54626 215.299329 
L 625.786248 263.515143 
L 625.899184 266.178094 
L 625.941535 265.891797 
L 626.026237 263.134878 
L 626.139173 251.1015 
L 626.308576 203.842073 
L 626.393278 224.407883 
L 626.605033 264.053889 
L 626.80267 268.898157 
L 626.845021 268.664328 
L 626.929723 266.559349 
L 627.056776 256.378645 
L 627.127361 250.742796 
L 627.183829 253.741985 
L 627.437934 271.240985 
L 627.663806 273.602584 
L 627.960262 274.470176 
L 628.524942 274.883339 
L 629.033153 275.062715 
L 629.329609 275.097246 
L 629.51313 275.160082 
L 633.367064 275.183246 
L 633.564702 274.941364 
L 633.607053 275.005304 
L 633.847042 275.302454 
L 634.002328 275.276008 
L 634.36937 274.953724 
L 634.411721 275.013512 
L 634.665826 275.257431 
L 634.863464 275.267713 
L 635.046985 275.225946 
L 635.258739 275.22977 
L 637.305701 275.193686 
L 637.757444 275.233033 
L 638.039783 275.241887 
L 639.183259 275.184393 
L 639.592651 275.217512 
L 639.931458 275.193505 
L 640.114979 275.23464 
L 640.637307 275.217828 
L 641.456092 275.193524 
L 642.458397 275.153182 
L 642.670152 275.109058 
L 643.023076 275.127047 
L 643.33365 275.106366 
L 643.488936 275.07398 
L 643.728925 275.082283 
L 644.801815 275.012912 
L 645.310026 275.034051 
L 645.550015 275.027985 
L 646.665256 274.936785 
L 646.905244 274.953803 
L 647.187584 274.955147 
L 648.04872 274.93756 
L 648.246357 274.859147 
L 648.740451 274.957591 
L 649.036908 274.892925 
L 649.220429 274.893392 
L 649.841576 274.820513 
L 650.152149 274.791347 
L 650.462722 274.799589 
L 650.674477 274.803486 
L 650.815647 274.834666 
L 651.210922 274.788099 
L 652.100292 274.755308 
L 652.241461 274.703161 
L 652.509684 274.655375 
L 653.314352 274.609667 
L 653.808446 274.651469 
L 656.575373 274.373079 
L 656.87183 274.197806 
L 657.140052 274.286626 
L 657.845901 274.249878 
L 658.043539 274.272424 
L 658.227059 274.262147 
L 658.805855 274.360509 
L 658.947025 274.296108 
L 659.554055 274.115072 
L 660.048149 274.242223 
L 660.245787 274.236911 
L 661.092805 274.163155 
L 661.375145 274.161014 
L 661.629251 274.062988 
L 661.685718 274.076066 
L 661.728069 274.023501 
L 661.91159 274.001437 
L 662.05276 273.903639 
L 662.208047 273.883212 
L 663.365639 273.423825 
L 663.577393 273.197449 
L 663.718563 272.666073 
L 663.87385 271.208305 
L 664.000903 267.867621 
L 664.127955 257.560077 
L 664.212657 247.183772 
L 664.269125 251.821296 
L 664.466763 266.89119 
L 664.509114 267.083277 
L 664.551465 266.824846 
L 664.650283 264.169502 
L 664.763219 254.470298 
L 664.918506 222.070364 
L 664.974974 234.316486 
L 665.172612 264.579122 
L 665.313781 267.228072 
L 665.342015 267.081973 
L 665.426717 264.791043 
L 665.55377 253.061737 
L 665.610238 247.809898 
L 665.652589 250.896937 
L 665.892577 270.128771 
L 666.132566 272.553136 
L 666.400789 273.173119 
L 666.866649 273.256265 
L 667.120754 273.324326 
L 667.346626 273.386848 
L 667.586615 273.324981 
L 667.798369 273.035154 
L 667.883071 273.134644 
L 668.30658 273.291728 
L 668.617154 272.949306 
L 668.673622 273.084886 
L 668.843025 273.240515 
L 669.280652 273.212067 
L 669.421821 273.131946 
L 669.464172 273.180624 
L 669.746512 273.158164 
L 669.958267 273.080406 
L 670.819402 273.037261 
L 670.988806 272.979693 
L 671.129976 273.00823 
L 671.257028 273.06883 
L 671.285262 273.024786 
L 671.525251 272.857984 
L 671.539368 272.870956 
L 671.680538 272.79284 
L 671.962877 272.61931 
L 671.976994 272.634809 
L 672.146398 272.783408 
L 672.174632 272.7495 
L 672.372269 272.604723 
L 672.499322 272.53487 
L 672.682843 272.308483 
L 672.739311 272.388441 
L 672.922832 272.449175 
L 673.035767 272.39155 
L 673.134586 272.318918 
L 673.176937 272.352112 
L 673.346341 272.116892 
L 673.529861 271.94767 
L 673.854552 271.372938 
L 673.981605 270.824842 
L 674.136891 268.880502 
L 674.278061 264.138067 
L 674.447465 248.129798 
L 674.51805 255.034133 
L 674.701571 266.511843 
L 674.758038 266.838134 
L 674.814506 266.592594 
L 674.927442 263.930293 
L 675.054495 255.174765 
L 675.181548 228.842952 
L 675.26625 200.838987 
L 675.322717 214.702487 
L 675.534472 260.555544 
L 675.661525 263.627074 
L 675.703876 263.368592 
L 675.802695 260.303418 
L 675.929747 246.876933 
L 676.085034 200.336795 
L 676.155619 219.214495 
L 676.353257 261.909234 
L 676.550894 267.381307 
L 676.565011 267.411615 
L 676.607362 267.257288 
L 676.692064 265.678765 
L 676.819117 257.516578 
L 676.917936 247.586795 
L 676.960287 251.35616 
L 677.186158 269.053801 
L 677.41203 271.439686 
L 677.666135 271.976971 
L 677.976709 272.134981 
L 678.499037 272.130985 
L 678.739026 272.036368 
L 678.979014 272.010665 
L 679.473108 271.973831 
L 679.628395 271.886563 
L 679.953086 271.688111 
L 680.489531 271.643199 
L 680.743636 271.748639 
L 680.884806 271.669234 
L 680.91304 271.702332 
L 681.110678 271.705103 
L 682.367089 271.272933 
L 682.480024 271.221615 
L 682.762364 270.946257 
L 682.776481 270.957212 
L 682.861183 270.884582 
L 683.030586 270.513379 
L 683.101171 270.681812 
L 683.228224 270.867117 
L 683.256458 270.838773 
L 683.397628 270.767404 
L 683.552915 270.709348 
L 683.651733 270.629491 
L 683.722318 270.483924 
L 683.849371 270.161122 
L 683.905839 270.259274 
L 684.188178 270.535498 
L 684.371699 270.501204 
L 685.077548 270.14504 
L 685.388121 270.033267 
L 685.543408 269.950654 
L 685.811631 269.855709 
L 685.981034 269.774306 
L 686.150438 269.660927 
L 686.291608 269.619404 
L 686.658649 269.189298 
L 686.799819 269.164304 
L 687.039808 268.815127 
L 687.096276 268.855932 
L 687.237445 268.967105 
L 687.265679 268.929703 
L 687.77389 268.614356 
L 687.91506 268.579556 
L 688.112698 268.370298 
L 689.284407 266.935216 
L 689.59498 266.462819 
L 689.834969 266.118293 
L 690.173776 265.172152 
L 691.147848 263.730023 
L 692.63013 260.24938 
L 693.392447 258.129193 
L 693.561851 257.709245 
L 694.31005 255.320478 
L 694.45122 255.034323 
L 694.479454 255.199313 
L 694.705326 256.680432 
L 695.19942 257.342377 
L 695.820567 257.115024 
L 696.215842 256.587208 
L 696.427597 256.505123 
L 696.512299 256.416095 
L 696.695819 256.213401 
L 696.780521 256.256913 
L 696.822872 256.20637 
L 697.274615 256.044754 
L 697.415785 255.781054 
L 697.655774 255.462785 
L 697.740476 255.351992 
L 698.051049 254.925511 
L 698.262804 254.673546 
L 699.208641 252.947391 
L 699.63215 251.685593 
L 699.745086 251.261752 
L 700.337999 248.972673 
L 701.368538 241.207769 
L 701.679112 235.132028 
L 701.919101 223.870185 
L 702.074387 205.062862 
L 702.229674 146.330304 
L 702.300259 108.391416 
L 702.34261 133.397985 
L 702.540247 245.369224 
L 702.709651 250.331382 
L 702.822587 249.529803 
L 703.316681 244.182303 
L 703.599021 241.222434 
L 704.968367 227.16616 
L 706.337714 206.627404 
L 708.45526 165.514803 
L 708.469377 165.527738 
L 708.610547 164.970768 
L 708.624664 165.027009 
L 708.751717 165.310418 
L 708.667015 164.931123 
L 708.765834 165.281796 
L 708.779951 165.224072 
L 708.794068 165.38292 
L 709.048173 167.469771 
L 709.06229 167.471154 
L 709.20346 168.667203 
L 709.217577 168.534779 
L 709.415215 164.131899 
L 709.471683 161.583637 
L 709.514034 162.654805 
L 709.655203 173.846765 
L 709.697554 172.703148 
L 709.725788 171.146811 
L 709.824607 147.658251 
L 709.95166 107.682373 
L 709.979894 125.575203 
L 710.022245 302.209823 
L 710.033494 433 
M 710.657102 433 
L 710.869263 386.398202 
L 711.16572 361.766733 
L 711.476293 345.275553 
L 711.857452 333.080872 
L 711.998621 331.41213 
L 712.252727 327.515107 
L 712.337429 326.626839 
L 712.619768 323.311432 
L 713.000927 319.575719 
L 713.085629 319.019801 
L 713.438553 316.272602 
L 713.650308 314.590825 
L 713.989115 312.26296 
L 714.299689 310.514213 
L 714.412624 309.896308 
L 714.66673 308.641486 
L 714.934953 307.541148 
L 715.203175 306.58812 
L 715.259643 306.336223 
L 715.443164 305.744328 
L 715.711386 304.738642 
L 716.374884 303.669346 
L 716.389001 303.680218 
L 716.516054 303.713948 
L 716.530171 303.693414 
L 716.572522 303.754856 
L 716.600756 303.736717 
L 716.798393 303.969272 
L 716.826627 303.910526 
L 716.897212 304.000055 
L 717.405423 306.277106 
L 717.70188 307.914253 
L 717.758348 308.071177 
L 717.786582 307.948153 
L 717.828933 306.731625 
L 717.913634 295.983299 
L 717.998336 253.353781 
L 718.083038 184.34756 
L 718.139506 200.289667 
L 718.379495 264.158392 
L 718.619483 278.536623 
L 719.014759 285.346757 
L 719.410034 287.536953 
L 719.424151 287.529663 
L 719.466502 287.629754 
L 719.593555 287.907249 
L 719.904128 288.381812 
L 720.045298 288.352268 
L 720.059415 288.37061 
L 720.412339 288.911332 
L 720.722913 288.708889 
L 720.73703 288.726579 
L 720.92055 288.844039 
L 721.118188 288.613034 
L 721.132305 288.63518 
L 721.20289 288.687086 
L 721.245241 288.634773 
L 721.555814 288.499802 
L 721.753452 288.306108 
L 721.880505 288.362802 
L 721.894622 288.331186 
L 722.021675 288.269265 
L 722.035792 288.281192 
L 722.233429 288.333272 
L 722.487535 288.157531 
L 722.868693 288.123792 
L 723.546308 287.635292 
L 723.687478 287.714066 
L 723.701595 287.696267 
L 723.998051 287.494932 
L 724.012168 287.509637 
L 724.082753 287.582002 
L 724.139221 287.519486 
L 724.350976 287.464033 
L 724.435677 287.352136 
L 724.619198 287.186044 
L 724.859187 287.298975 
L 724.943889 287.098059 
L 725.070941 286.958285 
L 725.085058 286.974735 
L 725.254462 286.984929 
L 725.706205 286.711183 
L 725.77679 286.629261 
L 725.91796 286.603737 
L 726.05913 286.635744 
L 726.270884 286.472551 
L 726.397937 286.425434 
L 726.609692 286.389317 
L 726.694394 286.292314 
L 726.99085 285.919237 
L 727.004967 285.932237 
L 727.188488 285.962458 
L 727.470827 285.904574 
L 727.640231 285.846121 
L 727.837869 285.73901 
L 727.979038 285.841292 
L 727.993155 285.821678 
L 728.233144 285.585952 
L 728.600185 285.64838 
L 728.868408 285.452579 
L 730.110702 285.251451 
L 730.294223 285.344693 
L 730.322457 285.29146 
L 730.7742 284.841995 
L 730.788317 284.853963 
L 730.971837 284.899634 
L 731.183592 284.919203 
L 731.310645 284.832608 
L 731.56475 284.676909 
L 731.70592 284.612023 
L 731.903558 284.53124 
L 732.058845 284.497988 
L 732.284716 284.352878 
L 732.665875 284.207002 
L 732.77881 284.287321 
L 732.905863 284.362606 
L 732.948214 284.322019 
L 733.145852 284.044488 
L 733.20232 284.106065 
L 733.357606 284.157395 
L 733.371723 284.137496 
L 733.484659 284.038725 
L 733.541127 284.085565 
L 733.682297 284.185877 
L 733.696414 284.169916 
L 734.063455 283.899067 
L 734.190508 283.967819 
L 734.218742 283.920416 
L 734.402263 283.814487 
L 734.430497 283.849511 
L 734.5999 283.893073 
L 735.771609 283.549134 
L 735.912779 283.513507 
L 736.110417 283.443215 
L 736.251587 283.442325 
L 736.463341 283.577072 
L 736.830383 283.49001 
L 736.957435 283.464599 
L 737.140956 283.447102 
L 737.507997 283.418137 
L 737.705635 283.482674 
L 738.002092 283.335615 
L 738.764408 283.239154 
L 738.962046 283.179753 
L 739.13145 283.103613 
L 739.329087 283.019811 
L 739.526725 282.961406 
L 739.766714 282.929741 
L 740.698434 282.985297 
L 740.825487 282.893159 
L 740.853721 282.917036 
L 741.023124 282.901837 
L 743.183022 282.752143 
L 743.338309 282.779377 
L 743.860637 282.606245 
L 744.651187 282.57754 
L 745.286451 282.576915 
L 745.512323 282.505907 
L 746.7405 282.573667 
L 746.92402 282.500924 
L 747.079307 282.488752 
L 748.095729 282.426327 
L 748.448654 282.050259 
L 748.914514 282.392187 
L 748.970982 282.376241 
L 748.999216 282.310422 
L 749.267439 281.617059 
L 749.323906 281.806646 
L 749.507427 282.211728 
L 749.902702 282.257695 
L 750.086223 281.951288 
L 750.156808 282.069842 
L 750.410914 282.45414 
L 750.919125 282.552298 
L 751.102645 282.532995 
L 751.3144 282.681585 
L 752.119068 282.76953 
L 752.584928 283.004166 
L 752.99432 282.940432 
L 753.149607 283.136669 
L 753.304894 283.253615 
L 753.813105 283.476834 
L 754.448369 284.100291 
L 754.589539 284.254167 
L 754.914229 284.640256 
L 755.125984 284.392838 
L 755.224802 283.56345 
L 755.351855 280.59148 
L 755.464791 271.11194 
L 755.577727 241.276734 
L 755.662429 217.570629 
L 755.70478 226.39241 
L 755.944768 270.839868 
L 756.057704 273.458274 
L 756.100055 273.029059 
L 756.184757 269.062098 
L 756.297693 248.429833 
L 756.410628 181.310381 
L 756.481213 145.230688 
L 756.523564 164.411085 
L 756.749436 254.26343 
L 756.961191 266.317422 
L 756.989424 266.204106 
L 757.060009 263.384245 
L 757.172945 246.300154 
L 757.299998 209.480875 
L 757.356466 223.551957 
L 757.582337 265.221971 
L 757.822326 273.158992 
L 758.147017 276.226844 
L 758.528175 277.554501 
L 758.683462 277.586863 
L 758.697579 277.565682 
L 758.754046 277.431741 
L 758.796397 277.511699 
L 759.121088 278.563681 
L 759.431661 278.924004 
L 759.474012 278.880959 
L 759.643416 278.891054 
L 759.855171 279.265307 
L 759.99634 279.442056 
L 760.222212 279.611937 
L 760.236329 279.597218 
L 760.405733 279.597011 
L 760.546902 279.696109 
L 760.815125 279.965525 
L 761.365687 280.240091 
L 761.577442 280.29217 
L 762.142121 280.675961 
L 762.438577 280.719835 
L 762.720917 280.928803 
L 763.102075 280.756661 
L 763.130309 280.838713 
L 763.356181 281.277489 
L 763.723222 281.47921 
L 763.822041 281.245964 
L 763.878509 281.084424 
L 763.92086 281.19344 
L 764.231433 282.103891 
L 764.457305 282.179122 
L 764.556124 281.871485 
L 764.669059 280.58849 
L 764.810229 276.584559 
L 764.923165 264.221589 
L 765.036101 223.39641 
L 765.078452 210.848667 
L 765.13492 223.296722 
L 765.346674 267.898121 
L 765.473727 271.647185 
L 765.516078 271.370428 
L 765.60078 268.441229 
L 765.699599 255.292145 
L 765.812535 206.573702 
L 765.911353 137.359884 
L 765.953704 160.075543 
L 766.165459 251.708761 
L 766.377214 265.156076 
L 766.405448 265.324485 
L 766.447798 264.806772 
L 766.5325 259.1457 
L 766.645436 233.15155 
L 766.730138 204.835347 
L 766.772489 214.634788 
L 766.998361 262.968662 
L 767.238349 271.562095 
L 767.520689 274.406549 
L 767.915964 275.941545 
L 768.522994 277.025601 
L 768.762983 277.254574 
L 769.84999 277.913854 
L 770.089978 278.002097 
L 770.245265 278.08784 
L 771.826366 278.524924 
L 772.066355 278.574589 
L 772.249876 278.548957 
L 772.419279 278.19803 
L 772.518098 278.358046 
L 772.758087 278.580323 
L 773.082777 278.412586 
L 773.223947 277.866114 
L 773.294532 278.080125 
L 773.506287 278.516522 
L 773.732158 278.634842 
L 773.95803 278.532645 
L 774.056849 278.369938 
L 774.0992 278.452348 
L 774.296837 278.715435 
L 774.720347 278.844007 
L 775.17209 278.787552 
L 775.623833 278.879628 
L 777.261402 278.996029 
L 777.402572 278.995189 
L 777.670795 278.983011 
L 778.023719 279.017014 
L 778.404877 279.047926 
L 778.574281 279.013636 
L 778.715451 278.995593 
L 779.167194 279.040843 
L 779.60482 279.058299 
L 779.915394 278.999953 
L 780.127148 279.029713 
L 780.310669 279.037133 
L 780.480073 279.027722 
L 780.988284 279.016158 
L 781.355325 279.077253 
L 782.159993 279.050419 
L 782.357631 279.038272 
L 782.512917 279.112531 
L 782.668204 279.076531 
L 782.823491 279.116265 
L 783.430521 279.087723 
L 783.599925 279.049257 
L 783.797562 279.072891 
L 783.952849 279.08613 
L 784.291656 279.036394 
L 784.644581 279.094516 
L 785.632769 279.071805 
L 785.844524 279.061276 
L 786.042161 279.007631 
L 786.169214 279.034187 
L 786.550373 279.098218 
L 786.733893 279.112743 
L 788.597334 279.093313 
L 788.738504 279.129229 
L 788.936141 279.150081 
L 789.162013 279.124681 
L 789.769043 279.131441 
L 789.966681 279.143905 
L 790.136084 279.097055 
L 790.53136 279.07272 
L 790.743114 279.092191 
L 796.432256 278.988176 
L 796.573426 279.00775 
L 799.326236 279.049 
L 799.523874 279.079881 
L 799.749745 279.073824 
L 801.161443 279.03906 
L 801.824941 279.037353 
L 802.022578 279.021609 
L 802.71431 278.992615 
L 803.702499 278.959173 
L 803.900136 278.963474 
L 804.111891 278.982647 
L 804.39423 279.018879 
L 804.5354 279.017134 
L 804.718921 279.034018 
L 805.029494 279.012887 
L 805.269483 278.999659 
L 805.467121 279.055961 
L 805.678875 279.054864 
L 805.89063 279.041303 
L 806.045917 279.045225 
L 806.63883 278.975156 
L 807.542316 279.056897 
L 808.205814 279.003618 
L 808.516387 279.06105 
L 808.812844 279.030428 
L 809.066949 279.06449 
L 809.433991 279.164506 
L 809.970436 279.057728 
L 810.266892 279.165543 
L 811.198613 279.147777 
L 811.438601 279.125872 
L 812.652661 278.981073 
L 812.75148 278.596222 
L 812.850299 278.155453 
L 812.89265 278.240174 
L 813.146756 279.063736 
L 813.160873 279.056622 
L 813.302042 279.06447 
L 813.570265 279.190973 
L 814.050242 279.190695 
L 814.191412 279.18121 
L 814.516102 279.317457 
L 815.123132 279.382247 
L 816.676 279.595379 
L 816.915988 279.614637 
L 817.579486 279.934 
L 818.271218 280.285323 
L 818.638259 280.599154 
L 818.793546 280.336563 
L 818.920599 279.482069 
L 819.047652 276.165105 
L 819.28764 260.248715 
L 819.386459 231.161815 
L 819.499395 119.50619 
L 819.555863 55.416475 
L 819.612331 104.789196 
L 819.809968 239.209592 
L 820.03584 261.76505 
L 820.261712 270.42064 
L 820.544051 273.641451 
L 820.939326 275.443808 
L 821.320485 276.302687 
L 821.461655 276.402904 
L 821.729877 276.743149 
L 822.111035 277.084179 
L 822.732182 277.325444 
L 822.92982 277.377686 
L 823.099224 277.438548 
L 824.14388 277.74352 
L 824.42622 277.812971 
L 824.637974 277.815211 
L 824.849729 277.832211 
L 825.301472 277.934701 
L 825.414408 277.86341 
L 825.456759 277.918338 
L 825.8238 277.914657 
L 826.176725 277.866305 
L 826.317894 277.584708 
L 826.444947 276.927698 
L 826.515532 277.145562 
L 826.755521 277.865838 
L 827.193147 278.10896 
L 827.489603 278.072271 
L 827.687241 278.132202 
L 827.856645 278.075169 
L 827.969581 278.101663 
L 828.153101 278.147866 
L 828.421324 278.109338 
L 828.576611 278.085681 
L 828.816599 278.071942 
L 829.211874 278.105257 
L 829.550682 278.152491 
L 829.762437 278.08106 
L 829.93184 278.112364 
L 830.298882 278.220009 
L 830.524753 278.197548 
L 830.778859 278.167016 
L 830.962379 278.182838 
L 831.202368 278.307585 
L 831.809398 278.154722 
L 832.176439 278.198131 
L 832.317609 278.148341 
L 832.331726 278.164779 
L 832.557598 278.248986 
L 832.938756 278.177557 
L 833.10816 278.187486 
L 833.602254 278.210906 
L 833.85636 278.215325 
L 834.64691 278.234641 
L 834.92925 278.190995 
L 835.098653 278.198858 
L 835.606865 278.22042 
L 836.072725 278.27306 
L 837.54089 278.218343 
L 837.696177 278.225126 
L 838.726716 278.204496 
L 838.882003 278.187388 
L 839.319629 278.212698 
L 839.517267 278.214916 
L 839.757256 278.145835 
L 840.025478 278.192831 
L 840.166648 278.207776 
L 840.463104 278.278743 
L 840.886614 278.260717 
L 841.197187 278.263696 
L 841.408942 278.199162 
L 841.846568 278.270425 
L 842.114791 278.263662 
L 842.608885 278.252077 
L 843.14533 278.25078 
L 843.526488 278.291012 
L 843.695892 278.29475 
L 843.865296 278.305845 
L 846.956913 278.181694 
L 847.182785 278.163063 
L 847.422774 278.306322 
L 847.436891 278.293258 
L 847.634528 278.231593 
L 847.945102 278.268196 
L 848.086272 278.274757 
L 848.947407 278.275435 
L 849.145045 278.248046 
L 850.683795 278.214603 
L 850.980252 278.232984 
L 851.742568 278.223659 
L 852.406066 278.243276 
L 852.603704 278.20506 
L 852.871926 278.188031 
L 853.111915 278.185295 
L 853.196617 278.184699 
L 853.224851 278.21855 
L 853.535424 278.291084 
L 854.001285 278.168351 
L 854.410677 278.176404 
L 854.947122 278.338831 
L 855.582386 278.265602 
L 855.822374 278.260285 
L 856.21765 278.200585 
L 856.627042 278.30319 
L 856.881148 278.305854 
L 857.205838 278.352434 
L 857.417593 278.326546 
L 860.65038 278.273406 
L 861.017422 278.260956 
L 861.610335 278.233678 
L 861.878557 278.245542 
L 862.89498 278.269241 
L 863.050266 278.231595 
L 865 278.184026 
L 865 278.184026 
" clip-path="url(#p46d3d716a7)" style="fill: none; stroke: #000000; stroke-width: 0.5; stroke-linecap: square"/>
   </g>
   <g id="patch_3">
    <path d="M 17.145 390.04 
L 17.145 10.8 
" style="fill: none; stroke: #000000; stroke-width: 0.8; stroke-linejoin: miter; stroke-linecap: square"/>
   </g>
   <g id="patch_4">
    <path d="M 853.2 390.04 
L 853.2 10.8 
" style="fill: none; stroke: #000000; stroke-width: 0.8; stroke-linejoin: miter; stroke-linecap: square"/>
   </g>
   <g id="patch_5">
    <path d="M 17.145 390.04 
L 853.2 390.04 
" style="fill: none; stroke: #000000; stroke-width: 0.8; stroke-linejoin: miter; stroke-linecap: square"/>
   </g>
   <g id="patch_6">
    <path d="M 17.145 10.8 
L 853.2 10.8 
" style="fill: none; stroke: #000000; stroke-width: 0.8; stroke-linejoin: miter; stroke-linecap: square"/>
   </g>
  </g>
 </g>
 <defs>
  <clipPath id="p46d3d716a7">
   <rect x="17.145" y="10.8" width="836.055" height="379.24"/>
  </clipPath>
 </defs>
</svg>
